<svg width="162" height="144" viewBox="0 0 162 144" fill="none" xmlns="http://www.w3.org/2000/svg">
<path d="M43.3562 52.5208C43.3562 52.7773 43.3061 53.0312 43.2087 53.2682C43.1114 53.5051 42.9687 53.7204 42.7888 53.9017C42.6089 54.083 42.3954 54.2267 42.1604 54.3247C41.9255 54.4227 41.6737 54.473 41.4194 54.4728H26.7279C26.4688 54.4808 26.2106 54.4361 25.9688 54.3416C25.7271 54.247 25.5066 54.1045 25.3204 53.9223C25.1343 53.7402 24.9863 53.5222 24.8853 53.2813C24.7842 53.0404 24.7321 52.7815 24.7321 52.5199C24.7321 52.2583 24.7842 51.9993 24.8853 51.7584C24.9863 51.5175 25.1343 51.2995 25.3204 51.1174C25.5066 50.9353 25.7271 50.7927 25.9688 50.6981C26.2106 50.6036 26.4688 50.559 26.7279 50.567H41.4194C41.9331 50.567 42.4257 50.7728 42.7889 51.1392C43.1521 51.5056 43.3562 52.0026 43.3562 52.5208ZM128.895 50.567H114.203C113.944 50.559 113.686 50.6036 113.444 50.6981C113.203 50.7927 112.982 50.9353 112.796 51.1174C112.61 51.2995 112.462 51.5175 112.361 51.7584C112.26 51.9993 112.208 52.2583 112.208 52.5199C112.208 52.7815 112.26 53.0404 112.361 53.2813C112.462 53.5222 112.61 53.7402 112.796 53.9223C112.982 54.1045 113.203 54.247 113.444 54.3416C113.686 54.4361 113.944 54.4808 114.203 54.4728H128.895C129.398 54.4573 129.876 54.2448 130.226 53.8802C130.577 53.5157 130.773 53.0277 130.773 52.5199C130.773 52.012 130.577 51.5241 130.226 51.1595C129.876 50.795 129.398 50.5824 128.895 50.567ZM77.8114 37.9524C79.4685 37.9553 81.0568 38.621 82.228 39.8036C83.3992 40.9861 84.0578 42.589 84.0592 44.2606C84.0592 44.7788 84.2632 45.2758 84.6264 45.6422C84.9897 46.0086 85.4823 46.2144 85.996 46.2144C86.5096 46.2144 87.0023 46.0086 87.3655 45.6422C87.7287 45.2758 87.9327 44.7788 87.9327 44.2606C87.9292 41.8915 87.1108 39.597 85.6172 37.7687C84.1236 35.9404 82.0474 34.6916 79.7428 34.2355V29.4163C79.7507 29.1548 79.7065 28.8944 79.6128 28.6505C79.519 28.4066 79.3777 28.1842 79.1972 27.9964C79.0166 27.8086 78.8005 27.6593 78.5617 27.5574C78.3229 27.4554 78.0663 27.4029 77.8069 27.4029C77.5476 27.4029 77.291 27.4554 77.0522 27.5574C76.8133 27.6593 76.5973 27.8086 76.4167 27.9964C76.2362 28.1842 76.0948 28.4066 76.0011 28.6505C75.9074 28.8944 75.8632 29.1548 75.8711 29.4163V34.2355C73.3994 34.7193 71.1951 36.1151 69.6886 38.1502C68.182 40.1853 67.4814 42.7138 67.7233 45.242C67.9653 47.7702 69.1325 50.1167 70.9972 51.8235C72.8618 53.5303 75.29 54.4749 77.8078 54.4728C79.0446 54.4728 80.2536 54.8427 81.2819 55.5359C82.3102 56.229 83.1117 57.2142 83.585 58.3669C84.0583 59.5196 84.1821 60.7879 83.9408 62.0116C83.6996 63.2353 83.104 64.3593 82.2295 65.2415C81.355 66.1237 80.2408 66.7245 79.0278 66.9679C77.8148 67.2113 76.5575 67.0864 75.4149 66.6089C74.2723 66.1315 73.2957 65.3229 72.6086 64.2856C71.9214 63.2482 71.5547 62.0286 71.5547 60.7809C71.5626 60.5195 71.5184 60.2591 71.4247 60.0152C71.3309 59.7712 71.1896 59.5488 71.009 59.361C70.8285 59.1733 70.6124 59.024 70.3736 58.922C70.1348 58.8201 69.8781 58.7676 69.6188 58.7676C69.3595 58.7676 69.1028 58.8201 68.864 58.922C68.6252 59.024 68.4091 59.1733 68.2286 59.361C68.048 59.5488 67.9067 59.7712 67.813 60.0152C67.7193 60.2591 67.675 60.5195 67.6829 60.7809C67.6858 63.1498 68.5038 65.4442 69.9972 67.2723C71.4905 69.1003 73.5667 70.3487 75.8711 70.8043V75.6253C75.8864 76.1329 76.0971 76.6146 76.4585 76.9682C76.8198 77.3218 77.3035 77.5195 77.8069 77.5195C78.3104 77.5195 78.7941 77.3218 79.1554 76.9682C79.5168 76.6146 79.7275 76.1329 79.7428 75.6253V70.8043C82.2144 70.3204 84.4185 68.9248 85.925 66.8899C87.4316 64.855 88.1324 62.3267 87.8906 59.7986C87.6489 57.2706 86.482 54.9241 84.6177 53.2171C82.7534 51.5102 80.3255 50.5653 77.8078 50.567C76.9779 50.5812 76.1534 50.4285 75.3825 50.1179C74.6116 49.8073 73.9097 49.345 73.3178 48.7579C72.7259 48.1708 72.2557 47.4707 71.9348 46.6984C71.6139 45.9261 71.4486 45.0971 71.4486 44.2597C71.4486 43.4223 71.6139 42.5933 71.9348 41.821C72.2557 41.0487 72.7259 40.3486 73.3178 39.7615C73.9097 39.1744 74.6116 38.7121 75.3825 38.4015C76.1534 38.0909 76.9779 37.9382 77.8078 37.9524H77.8114ZM109.387 101.074C108.376 100.054 107.808 98.6716 107.808 97.2296C107.808 95.7876 108.375 94.4046 109.386 93.3849C110.396 92.3651 111.767 91.7921 113.197 91.792C114.626 91.7918 115.997 92.3645 117.008 93.384L122.408 98.8314L135.468 85.6559C135.969 85.1504 136.563 84.7494 137.217 84.4757C137.872 84.202 138.573 84.061 139.281 84.0606C139.989 84.0603 140.691 84.2007 141.345 84.4738C141.999 84.7468 142.594 85.1473 143.095 85.6522C143.596 86.1572 143.994 86.7567 144.265 87.4166C144.536 88.0765 144.676 88.7839 144.676 89.4983C144.677 90.2127 144.537 90.9202 144.267 91.5804C143.996 92.2405 143.599 92.8404 143.099 93.3459L126.227 110.366C125.215 111.382 123.845 111.953 122.417 111.953C120.988 111.953 119.618 111.382 118.606 110.366L109.387 101.074ZM112.125 98.3121L121.337 107.611C121.623 107.895 122.008 108.054 122.41 108.054C122.811 108.054 123.196 107.895 123.482 107.611L140.354 90.5913C140.63 90.3025 140.783 89.9159 140.779 89.5146C140.776 89.1132 140.616 88.7293 140.335 88.4455C140.054 88.1618 139.673 88.0008 139.275 87.9973C138.878 87.9938 138.494 88.148 138.208 88.4268L124.708 102.045C124.407 102.35 124.05 102.591 123.656 102.756C123.262 102.921 122.84 103.006 122.414 103.006C121.988 103.006 121.566 102.921 121.172 102.756C120.779 102.591 120.421 102.35 120.12 102.045L114.274 96.1495C113.988 95.8652 113.602 95.7058 113.201 95.7058C112.799 95.7058 112.414 95.8652 112.128 96.1495C111.846 96.4366 111.687 96.8246 111.686 97.2291C111.685 97.6337 111.843 98.024 112.125 98.3121ZM161.998 62.9291V112.742C162.04 115.916 161.232 119.042 159.659 121.791C158.085 124.54 155.805 126.809 153.06 128.358L127.208 143.417C126.914 143.588 126.58 143.679 126.24 143.679C125.9 143.679 125.566 143.588 125.272 143.417L99.4184 128.36C96.6727 126.811 94.3927 124.542 92.8194 121.793C91.246 119.044 90.4377 115.918 90.4797 112.744V105.042H14.6213C10.7448 105.037 7.02829 103.482 4.2872 100.717C1.54611 97.9514 0.00428789 94.2022 0 90.2916V14.7499C0.00428789 10.8393 1.54611 7.09013 4.2872 4.32492C7.02829 1.55972 10.7448 0.00432561 14.6213 0H141C144.876 0.0043247 148.593 1.55966 151.335 4.32481C154.076 7.08997 155.618 10.8391 155.623 14.7499V60.9752H160.062C160.575 60.9752 161.068 61.1811 161.431 61.5475C161.794 61.9139 161.998 62.4109 161.998 62.9291ZM90.4797 101.136V91.7588H29.7519C29.3076 91.7589 28.8768 91.6048 28.5317 91.3225C28.1866 91.0402 27.9482 90.6467 27.8565 90.2081L26.6073 84.2286C26.2854 82.7532 25.5516 81.4016 24.4927 80.3333C23.4338 79.2651 22.0939 78.5249 20.6314 78.2001L14.7023 76.9399C14.2678 76.8471 13.8782 76.6065 13.5987 76.2584C13.3192 75.9103 13.1667 75.4758 13.1669 75.0279V30.0137C13.1667 29.5657 13.3192 29.1313 13.5987 28.7832C13.8782 28.4351 14.2678 28.1945 14.7023 28.1016L20.6314 26.8414C22.0939 26.5167 23.4338 25.7765 24.4927 24.7082C25.5516 23.64 26.2854 22.2883 26.6073 20.8129L27.8565 14.8316C27.9485 14.3932 28.187 13.9999 28.532 13.7176C28.877 13.4354 29.3077 13.2812 29.7519 13.2809H125.871C126.315 13.2813 126.745 13.4355 127.09 13.7178C127.435 14.0001 127.673 14.3933 127.765 14.8316L129.025 20.8129C129.346 22.2883 130.079 23.64 131.138 24.7083C132.197 25.7766 133.536 26.5168 134.999 26.8414L140.926 28.1016C141.361 28.1941 141.751 28.4346 142.031 28.7827C142.311 29.1308 142.463 29.5655 142.463 30.0137V60.9752H151.757V14.7499C151.753 11.8749 150.62 9.11863 148.604 7.0857C146.589 5.05277 143.857 3.90919 141.007 3.90583H14.6213C11.7713 3.90919 9.0391 5.05277 7.0239 7.0857C5.0087 9.11863 3.8751 11.8749 3.87176 14.7499V90.288C3.8751 93.163 5.0087 95.9193 7.0239 97.9522C9.0391 99.9852 11.7713 101.129 14.6213 101.132L90.4797 101.136ZM138.584 60.9752V31.5971L134.192 30.6637C131.989 30.1945 129.969 29.0897 128.377 27.4836C126.785 25.8776 125.69 23.8396 125.225 21.6173L124.3 17.1831H31.3197L30.3945 21.6119C29.9297 23.834 28.8348 25.872 27.2431 27.478C25.6514 29.084 23.6314 30.1889 21.4288 30.6583L17.0368 31.5916V73.4426L21.4288 74.3778C23.6314 74.8472 25.6514 75.9521 27.2431 77.5581C28.8348 79.1641 29.9297 81.2021 30.3945 83.4242L31.3197 87.853H90.4797V62.9291C90.4797 62.4109 90.6838 61.9139 91.047 61.5475C91.4102 61.1811 91.9028 60.9752 92.4165 60.9752H138.584ZM158.127 64.8811H94.3533V112.742C94.3193 115.229 94.9521 117.679 96.1846 119.832C97.4171 121.986 99.2036 123.764 101.355 124.977L126.24 139.471L151.123 124.977C153.275 123.764 155.062 121.986 156.295 119.833C157.527 117.679 158.16 115.229 158.127 112.742V64.8811ZM96.8571 112.742V69.3607C96.8568 69.1042 96.9067 68.8502 97.0038 68.6131C97.101 68.3761 97.2435 68.1607 97.4232 67.9792C97.6029 67.7978 97.8163 67.6538 98.0511 67.5556C98.286 67.4574 98.5378 67.4069 98.792 67.4069H153.692C154.205 67.4069 154.698 67.6127 155.061 67.9791C155.424 68.3455 155.628 68.8425 155.628 69.3607V112.742C155.671 114.787 155.157 116.805 154.143 118.576C153.13 120.347 151.654 121.804 149.877 122.789L127.214 135.99C126.919 136.162 126.585 136.252 126.245 136.252C125.905 136.252 125.571 136.162 125.277 135.99L102.599 122.789C100.824 121.803 99.3501 120.346 98.3378 118.574C97.3256 116.803 96.8135 114.786 96.8571 112.742ZM100.729 112.742C100.689 114.102 101.025 115.445 101.699 116.623C102.372 117.802 103.357 118.768 104.543 119.414L126.24 132.05L147.935 119.414C149.12 118.768 150.104 117.803 150.778 116.627C151.451 115.45 151.788 114.108 151.749 112.75V71.3145H100.729V112.742Z" fill="#00AFE1"/>
<path fill-rule="evenodd" clip-rule="evenodd" d="M43.2087 53.2682C43.3061 53.0312 43.3562 52.7773 43.3562 52.5208C43.3562 52.0026 43.1521 51.5056 42.7889 51.1392C42.4257 50.7728 41.9331 50.567 41.4194 50.567H26.7279C26.4688 50.559 26.2106 50.6036 25.9688 50.6981C25.7271 50.7927 25.5066 50.9353 25.3204 51.1174C25.1343 51.2995 24.9863 51.5175 24.8853 51.7584C24.7842 51.9993 24.7321 52.2583 24.7321 52.5199C24.7321 52.7815 24.7842 53.0404 24.8853 53.2813C24.9863 53.5222 25.1343 53.7402 25.3204 53.9223C25.5066 54.1045 25.7271 54.247 25.9688 54.3416C26.2106 54.4361 26.4688 54.4808 26.7279 54.4728H41.4194C41.6737 54.473 41.9255 54.4227 42.1604 54.3247C42.3954 54.2267 42.6089 54.083 42.7888 53.9017C42.9687 53.7204 43.1114 53.5051 43.2087 53.2682ZM114.203 50.567H128.895C129.398 50.5824 129.876 50.795 130.226 51.1595C130.577 51.5241 130.773 52.012 130.773 52.5199C130.773 53.0277 130.577 53.5157 130.226 53.8802C129.876 54.2448 129.398 54.4573 128.895 54.4728H114.203C113.944 54.4808 113.686 54.4361 113.444 54.3416C113.203 54.247 112.982 54.1045 112.796 53.9223C112.61 53.7402 112.462 53.5222 112.361 53.2813C112.26 53.0404 112.208 52.7815 112.208 52.5199C112.208 52.2583 112.26 51.9993 112.361 51.7584C112.462 51.5175 112.61 51.2995 112.796 51.1174C112.982 50.9353 113.203 50.7927 113.444 50.6981C113.686 50.6036 113.944 50.559 114.203 50.567ZM82.228 39.8036C81.0568 38.621 79.4685 37.9553 77.8115 37.9524H77.8079C76.9779 37.9382 76.1534 38.0909 75.3825 38.4015C74.6116 38.7121 73.9097 39.1744 73.3178 39.7615C72.7259 40.3486 72.2557 41.0487 71.9348 41.821C71.6139 42.5933 71.4486 43.4223 71.4486 44.2597C71.4486 45.0971 71.6139 45.9261 71.9348 46.6984C72.2557 47.4707 72.7259 48.1708 73.3178 48.7579C73.9097 49.345 74.6116 49.8073 75.3825 50.1179C76.1534 50.4285 76.9779 50.5812 77.8079 50.567C80.3255 50.5653 82.7534 51.5102 84.6177 53.2171C86.482 54.9241 87.6489 57.2706 87.8906 59.7986C88.1324 62.3267 87.4316 64.855 85.925 66.8899C84.4185 68.9248 82.2144 70.3204 79.7428 70.8043V75.6253C79.7275 76.1329 79.5168 76.6146 79.1554 76.9682C78.7941 77.3218 78.3104 77.5195 77.807 77.5195C77.3035 77.5195 76.8198 77.3218 76.4585 76.9682C76.0971 76.6146 75.8864 76.1329 75.8711 75.6253V70.8043C73.5667 70.3487 71.4905 69.1004 69.9972 67.2723C68.5038 65.4442 67.6858 63.1498 67.683 60.7809C67.675 60.5195 67.7193 60.2591 67.813 60.0152C67.9067 59.7712 68.0481 59.5488 68.2286 59.361C68.4091 59.1733 68.6252 59.024 68.864 58.922C69.1029 58.8201 69.3595 58.7676 69.6188 58.7676C69.8781 58.7676 70.1348 58.8201 70.3736 58.922C70.6124 59.024 70.8285 59.1733 71.0091 59.361C71.1896 59.5488 71.3309 59.7712 71.4247 60.0152C71.5184 60.2591 71.5626 60.5195 71.5547 60.7809C71.5547 62.0286 71.9215 63.2482 72.6086 64.2856C73.2957 65.3229 74.2723 66.1315 75.4149 66.6089C76.5575 67.0864 77.8148 67.2113 79.0278 66.9679C80.2408 66.7245 81.355 66.1237 82.2295 65.2415C83.104 64.3593 83.6996 63.2353 83.9408 62.0116C84.1821 60.7879 84.0583 59.5196 83.585 58.3669C83.1117 57.2142 82.3102 56.229 81.2819 55.5359C80.2536 54.8427 79.0446 54.4728 77.8079 54.4728C75.29 54.4749 72.8618 53.5303 70.9972 51.8235C69.1325 50.1167 67.9653 47.7702 67.7233 45.242C67.4814 42.7138 68.182 40.1853 69.6886 38.1502C71.1951 36.1151 73.3994 34.7193 75.8711 34.2355V29.4163C75.8632 29.1548 75.9074 28.8944 76.0011 28.6505C76.0949 28.4066 76.2362 28.1842 76.4167 27.9964C76.5973 27.8086 76.8134 27.6593 77.0522 27.5574C77.291 27.4554 77.5476 27.4029 77.807 27.4029C78.0663 27.4029 78.3229 27.4554 78.5617 27.5574C78.8006 27.6593 79.0166 27.8086 79.1972 27.9964C79.3777 28.1842 79.5191 28.4066 79.6128 28.6505C79.7065 28.8944 79.7507 29.1548 79.7428 29.4163V34.2355C82.0474 34.6916 84.1236 35.9404 85.6172 37.7687C87.1108 39.597 87.9292 41.8915 87.9328 44.2606C87.9328 44.7788 87.7287 45.2758 87.3655 45.6422C87.0023 46.0086 86.5096 46.2144 85.996 46.2144C85.4823 46.2144 84.9897 46.0086 84.6265 45.6422C84.2632 45.2758 84.0592 44.7788 84.0592 44.2606C84.0578 42.589 83.3992 40.9861 82.228 39.8036ZM155.623 60.75V14.7499C155.618 10.8391 154.076 7.08997 151.335 4.32481C148.593 1.55966 144.876 0.0043247 141 0H14.6213C10.7448 0.00432561 7.02829 1.55972 4.2872 4.32492C1.54611 7.09013 0.00428789 10.8393 0 14.7499V90.2916C0.00428789 94.2022 1.54611 97.9514 4.2872 100.717C7.02829 103.482 10.7448 105.037 14.6213 105.042H89.6786V101.136L14.6213 101.132C11.7713 101.129 9.0391 99.9852 7.0239 97.9522C5.0087 95.9193 3.8751 93.163 3.87176 90.288V14.7499C3.8751 11.8749 5.0087 9.11863 7.0239 7.0857C9.0391 5.05277 11.7713 3.90919 14.6213 3.90583H141.007C143.857 3.90919 146.589 5.05277 148.604 7.0857C150.62 9.11863 151.753 11.8749 151.757 14.7499V60.75H155.623ZM142.463 60.75V30.0137C142.463 29.5655 142.311 29.1308 142.031 28.7827C141.751 28.4346 141.361 28.1941 140.926 28.1016L134.999 26.8414C133.536 26.5168 132.197 25.7766 131.138 24.7083C130.079 23.64 129.346 22.2883 129.025 20.8129L127.765 14.8316C127.673 14.3933 127.435 14.0001 127.09 13.7178C126.745 13.4355 126.315 13.2813 125.871 13.2809H29.7519C29.3077 13.2812 28.877 13.4354 28.532 13.7176C28.187 13.9999 27.9485 14.3932 27.8565 14.8316L26.6073 20.8129C26.2854 22.2883 25.5516 23.64 24.4927 24.7082C23.4338 25.7765 22.0939 26.5167 20.6314 26.8414L14.7023 28.1016C14.2678 28.1945 13.8782 28.4351 13.5987 28.7832C13.3192 29.1313 13.1667 29.5657 13.1669 30.0137V75.0279C13.1667 75.4758 13.3192 75.9103 13.5987 76.2584C13.8782 76.6065 14.2678 76.8471 14.7023 76.9399L20.6314 78.2001C22.0939 78.5249 23.4338 79.2651 24.4927 80.3333C25.5516 81.4016 26.2854 82.7532 26.6073 84.2286L27.8565 90.2081C27.9482 90.6467 28.1866 91.0402 28.5317 91.3225C28.8768 91.6048 29.3076 91.7589 29.7519 91.7588H89.6786V87.853H31.3197L30.3945 83.4242C29.9297 81.2021 28.8348 79.1641 27.2431 77.5581C25.6514 75.9521 23.6314 74.8472 21.4288 74.3778L17.0368 73.4426V31.5916L21.4288 30.6583C23.6314 30.1889 25.6514 29.084 27.2431 27.478C28.8348 25.872 29.9297 23.834 30.3945 21.6119L31.3197 17.1831H124.3L125.225 21.6173C125.69 23.8396 126.785 25.8776 128.377 27.4836C129.969 29.0897 131.989 30.1945 134.192 30.6637L138.584 31.5971V60.75H142.463Z" fill="#9A9A9A"/>
</svg>
