<svg width="148" height="139" viewBox="0 0 148 139" fill="none" xmlns="http://www.w3.org/2000/svg">
<g clip-path="url(#clip0_4002_2)">
<path d="M70.109 22.6588C43.8125 22.6588 22.5249 43.9464 22.5249 70.2428C22.5249 96.5393 43.8125 117.827 70.109 117.827C96.4054 117.827 117.693 96.5393 117.693 70.2428C117.693 43.9464 96.4054 22.6588 70.109 22.6588ZM101.571 45.3551C98.2837 45.6682 94.9967 45.9812 91.5531 46.1377C90.3009 46.2943 88.8922 46.2943 87.4834 46.4508C86.2312 40.9724 84.5094 35.9635 82.4746 32.0503C90.1444 34.5548 96.7185 39.2506 101.571 45.3551ZM70.109 110.47C66.9784 110.47 62.9087 104.366 60.2478 93.8783C66.8219 93.7218 73.396 93.7218 79.8136 93.8783C77.3092 104.366 73.2395 110.47 70.109 110.47ZM58.8391 86.3651C58.213 82.6084 57.8999 78.3822 57.7434 73.9995H82.4746C82.318 78.5387 82.005 82.6084 81.3789 86.3651C73.8656 86.2085 66.3523 86.2085 58.8391 86.3651ZM70.109 30.0155C73.2395 30.0155 77.3092 36.12 79.9701 46.6073C76.8396 46.7638 73.5526 46.7638 70.109 46.7638C66.8219 46.7638 63.5349 46.7638 60.2478 46.6073C62.9087 36.12 66.9784 30.0155 70.109 30.0155ZM70.109 54.2771C74.0221 54.2771 77.6222 54.2771 81.3789 54.1206C82.005 57.8772 82.318 62.1034 82.4746 66.4862H57.7434C57.8999 61.9469 58.213 57.8772 58.8391 54.1206C62.5957 54.2771 66.3523 54.2771 70.109 54.2771ZM50.3866 66.4862H30.1947C30.6643 61.4773 32.073 56.625 34.2644 52.3988C38.8037 52.8684 43.4995 53.338 48.3518 53.651C49.4475 53.651 50.5432 53.8075 51.6388 53.8075C50.8562 57.8772 50.5432 62.26 50.3866 66.4862ZM50.3866 73.9995C50.5432 78.3822 50.8562 82.6084 51.4823 86.8346C50.3866 86.8346 49.2909 86.9912 48.3518 86.9912C43.656 87.3042 38.9602 87.6173 34.2644 88.2434C32.073 83.8606 30.6643 79.1648 30.1947 74.156H50.3866V73.9995ZM89.8313 73.9995H110.023C109.554 79.0083 108.145 83.8606 105.954 88.0869C101.414 87.6173 96.7185 87.1477 92.0227 86.8346C90.927 86.8346 89.8313 86.6781 88.7356 86.6781C89.3617 82.6084 89.8313 78.3822 89.8313 73.9995ZM89.8313 66.4862C89.6748 62.1034 89.3617 57.8772 88.7356 53.8075C89.8313 53.8075 90.927 53.651 92.0227 53.651C96.875 53.338 101.571 52.8684 105.954 52.3988C108.145 56.7815 109.554 61.4773 110.023 66.4862H89.8313ZM57.8999 32.0503C55.7085 35.9635 53.9867 40.9724 52.891 46.4508C51.4823 46.4508 50.0736 46.2943 48.8214 46.2943C45.3778 46.1377 42.0907 45.8247 38.8037 45.5116C43.4995 39.2506 50.2301 34.5548 57.8999 32.0503ZM38.6471 95.1305C41.9342 94.8175 45.3778 94.5044 48.6648 94.3479C50.0736 94.1914 51.3258 94.1914 52.7345 94.1914C53.9867 99.6698 55.7085 104.679 57.7434 108.592C50.2301 106.087 43.4995 101.392 38.6471 95.1305ZM82.4746 108.435C84.6659 104.522 86.2312 99.5133 87.4834 94.0349C88.8922 94.0349 90.3009 94.1914 91.7096 94.1914C95.1532 94.3479 98.4403 94.661 101.727 94.974C96.7185 101.235 90.1444 106.087 82.4746 108.435Z" fill="#9A9A9A"/>
<path d="M148.684 62.8859C148.214 61.9467 147.119 61.3206 146.023 61.3206H140.388C138.51 47.0767 132.249 33.3024 122.388 22.8151C110.492 9.97991 93.8997 1.68401 76.6818 0.275268C59.4639 -1.29 41.6198 3.87538 28.002 14.3627C14.2277 24.8499 4.52304 40.5026 1.54904 57.4075C-1.73802 74.3123 1.86209 92.3129 10.9406 106.87C20.0192 121.427 34.5761 132.384 51.168 137.079C67.6032 141.775 85.7603 139.897 100.943 132.384C108.457 128.471 115.344 123.305 121.135 117.044C126.77 110.626 131.31 103.426 134.44 95.4434C135.066 94.0347 134.284 92.3129 132.875 91.6868C131.466 91.0607 129.744 91.8433 129.118 93.252C126.144 100.452 122.074 107.183 116.753 112.974C111.431 118.609 105.17 123.305 98.1259 126.905C84.1951 133.792 67.7598 135.201 52.8897 130.818C38.0197 126.592 25.028 116.574 16.8886 103.426C8.90579 89.965 5.93178 73.8427 8.90579 58.8162C11.7233 43.7896 20.4888 29.8588 32.6978 20.7802C44.9069 11.5452 60.5595 7.16244 75.7426 8.7277C90.9257 10.1364 105.326 17.4932 115.5 28.7631C123.64 37.8416 128.962 49.2681 130.683 61.3206H126.457C125.362 61.3206 124.266 61.9467 123.796 62.8859C123.17 63.825 123.327 65.0773 123.953 66.0164L133.657 81.043C134.284 81.9821 135.223 82.4517 136.318 82.4517C137.414 82.4517 138.353 81.9821 138.979 81.043L148.684 66.0164C149.154 65.2338 149.154 63.9816 148.684 62.8859Z" fill="#9A9A9A"/>
<path d="M69.4864 22C43.19 22 21.9023 43.2876 21.9023 69.5841C21.9023 95.8805 43.19 117.168 69.4864 117.168C95.7829 117.168 117.07 95.8805 117.07 69.5841C117.07 43.2876 95.7829 22 69.4864 22ZM100.948 44.6964C97.6612 45.0094 94.3741 45.3225 90.9305 45.479C89.6783 45.6355 88.2696 45.6355 86.8609 45.792C85.6086 40.3136 83.8869 35.3048 81.852 31.3916C89.5218 33.896 96.0959 38.5918 100.948 44.6964ZM69.4864 109.811C66.3559 109.811 62.2862 103.707 59.6252 93.2196C66.1994 93.063 72.7735 93.063 79.1911 93.2196C76.6866 103.707 72.6169 109.811 69.4864 109.811ZM58.2165 85.7063C57.5904 81.9497 57.2773 77.7235 57.1208 73.3407H81.852C81.6955 77.88 81.3824 81.9497 80.7563 85.7063C73.243 85.5498 65.7298 85.5498 58.2165 85.7063ZM69.4864 29.3567C72.6169 29.3567 76.6866 35.4613 79.3476 45.9486C76.2171 46.1051 72.93 46.1051 69.4864 46.1051C66.1994 46.1051 62.9123 46.1051 59.6252 45.9486C62.2862 35.4613 66.3559 29.3567 69.4864 29.3567ZM69.4864 53.6184C73.3996 53.6184 76.9997 53.6184 80.7563 53.4618C81.3824 57.2185 81.6955 61.4447 81.852 65.8274H57.1208C57.2773 61.2882 57.5904 57.2185 58.2165 53.4618C61.9731 53.6184 65.7298 53.6184 69.4864 53.6184ZM49.7641 65.8274H29.5721C30.0417 60.8186 31.4505 55.9663 33.6418 51.74C38.1811 52.2096 42.8769 52.6792 47.7292 52.9923C48.8249 52.9923 49.9206 53.1488 51.0163 53.1488C50.2336 57.2185 49.9206 61.6012 49.7641 65.8274ZM49.7641 73.3407C49.9206 77.7235 50.2336 81.9497 50.8598 86.1759C49.7641 86.1759 48.6684 86.3324 47.7292 86.3324C43.0334 86.6455 38.3376 86.9585 33.6418 87.5846C31.4505 83.2019 30.0417 78.5061 29.5721 73.4972H49.7641V73.3407ZM89.2088 73.3407H109.401C108.931 78.3496 107.522 83.2019 105.331 87.4281C100.792 86.9585 96.0959 86.4889 91.4001 86.1759C90.3044 86.1759 89.2088 86.0194 88.1131 86.0194C88.7392 81.9497 89.2088 77.7235 89.2088 73.3407ZM89.2088 65.8274C89.0522 61.4447 88.7392 57.2185 88.1131 53.1488C89.2088 53.1488 90.3044 52.9923 91.4001 52.9923C96.2524 52.6792 100.948 52.2096 105.331 51.74C107.522 56.1228 108.931 60.8186 109.401 65.8274H89.2088ZM57.2773 31.3916C55.086 35.3048 53.3642 40.3136 52.2685 45.792C50.8598 45.792 49.451 45.6355 48.1988 45.6355C44.7552 45.479 41.4682 45.1659 38.1811 44.8529C42.8769 38.5918 49.6075 33.896 57.2773 31.3916ZM38.0246 94.4718C41.3116 94.1587 44.7552 93.8457 48.0423 93.6891C49.451 93.5326 50.7032 93.5326 52.112 93.5326C53.3642 99.0111 55.086 104.02 57.1208 107.933C49.6075 105.429 42.8769 100.733 38.0246 94.4718ZM81.852 107.777C84.0434 103.863 85.6086 98.8545 86.8609 93.3761C88.2696 93.3761 89.6783 93.5326 91.0871 93.5326C94.5307 93.6892 97.8177 94.0022 101.105 94.3153C96.0959 100.576 89.5218 105.429 81.852 107.777Z" fill="#00AFE1"/>
</g>
<defs>
<clipPath id="clip0_4002_2">
<rect width="148" height="139" fill="white"/>
</clipPath>
</defs>
</svg>
