<svg width="174" height="112" viewBox="0 0 174 112" fill="none" xmlns="http://www.w3.org/2000/svg">
<path fill-rule="evenodd" clip-rule="evenodd" d="M125.571 20.1636C125.315 20.2914 124.252 20.7049 122.383 21.4057C119.806 22.17 117.807 23.0622 116.389 24.0813C115.939 24.4005 115.422 25.0052 114.843 25.8974C114.65 26.4704 114.554 26.7896 114.554 26.853L114.455 27.3309L114.554 27.9039C114.554 28.6047 114.778 29.3373 115.23 30.1026C115.873 30.9938 116.423 31.663 116.872 32.1091C117.903 33.1925 119.387 34.3703 121.32 35.6451C121.512 35.772 124.669 37.6516 130.792 41.2828L138.911 46.7301C141.424 48.3232 143.744 49.4384 145.87 50.0749C147.998 50.8392 149.801 50.9036 151.285 50.2662C151.929 50.1383 152.508 49.7566 153.023 49.1192L154.086 47.2079C154.538 45.8062 154.828 44.4045 154.957 43.0037C155.215 41.2828 155.344 39.1811 155.344 36.6959L155.44 35.3586C155.183 35.4855 154.925 35.6134 154.668 35.7403L148.77 37.4603C146.516 37.9063 144.292 38.0342 142.102 37.8429C139.91 37.6516 137.526 36.919 134.949 35.6451L131.758 33.1599L129.245 30.1026C128.73 29.4017 128.086 28.223 127.312 26.5665L126.153 23.6035L125.958 22.5527C125.83 21.7884 125.702 20.9914 125.571 20.1636ZM134.369 8.69593L133.691 9.26894L133.208 9.93807C132.693 10.8302 132.402 11.3398 132.338 11.4677L131.566 13.0915L131.082 14.8124C130.438 17.3601 130.372 19.5906 130.888 21.5019L131.953 24.6553C132.725 26.1839 133.24 27.1078 133.499 27.4261L134.369 28.7643L135.336 29.9113L135.819 30.3891L137.558 31.6312C139.104 32.2686 139.942 32.5869 140.071 32.5869L141.328 32.9695L142.778 33.1599C143.937 33.3512 145.742 33.3195 148.19 33.0647C150.575 32.5551 152.121 32.1408 152.831 31.8225C154.054 31.2486 155.28 30.4208 156.503 29.3373C157.534 28.3182 158.34 27.2357 158.919 26.0887C160.08 23.8583 160.724 21.4692 160.853 18.9214C160.917 14.6528 159.822 11.1802 157.568 8.50462C156.084 6.52988 154.12 5.25601 151.67 4.68207L147.418 3.34473C147.031 3.91774 146.065 4.36383 144.518 4.68207L140.941 5.25601C138.3 5.76556 136.108 6.91251 134.369 8.69593ZM142.102 0C142.746 0 143.648 0.126921 144.807 0.381695C146.741 0.891244 147.675 1.6565 147.611 2.6756H147.998C148.577 2.6756 149.963 2.83425 152.153 3.15342C154.925 3.28034 157.405 4.52341 159.597 6.87985C162.625 9.81115 164.236 13.8885 164.43 19.1128C164.43 19.4944 164.43 19.9088 164.43 20.3549C164.687 20.1636 165.042 20.0357 165.493 19.9723C166.524 19.8453 167.362 19.9088 168.006 20.1636C168.521 20.3549 169.103 20.6731 169.747 21.1192C170.777 22.0114 171.68 23.2218 172.452 24.7505C172.711 25.4513 173.065 26.6617 173.517 28.3817C173.838 30.293 174 32.4273 174 34.7847C174 37.7794 173.677 41.5702 173.033 46.1571C172.324 50.2979 171.712 53.4513 171.196 55.6174C170.553 59.5678 169.552 62.4347 168.2 64.2181C167.362 65.4929 166.169 66.512 164.623 67.2763C163.592 67.7859 162.337 68.1685 160.853 68.4233C159.758 68.6781 157.664 68.8694 154.57 68.9963C149.157 69.1242 146.193 69.1876 145.678 69.1876C141.36 69.1876 138.46 69.029 136.978 68.7098L135.528 68.3281L136.978 67.9455L154.377 65.4612C155.6 65.2699 157.503 64.9834 160.08 64.6007C161.24 64.2825 162.142 63.9316 162.786 63.5499C163.56 63.1038 164.172 62.4981 164.623 61.7338C165.461 60.46 166.105 58.1026 166.556 54.6617L168.102 45.3928C168.619 40.9328 168.876 37.3968 168.876 34.7847C168.876 33.1282 168.716 31.313 168.393 29.3373C168.07 27.2991 167.426 25.8974 166.46 25.1331L165.202 24.2726C164.687 23.9544 164.3 23.6996 164.043 23.5083C163.72 25.037 163.205 26.5348 162.497 28C161.659 29.5921 160.628 31.0256 159.403 32.3004C158.631 33.1282 157.696 33.9251 156.601 34.6895C156.729 35.199 156.858 35.8364 156.986 36.6007C157.373 38.7668 157.568 40.9963 157.568 43.2902C157.568 45.0736 157.373 46.7301 156.986 48.2597C156.601 49.4701 156.15 50.4258 155.634 51.1266C154.989 51.8909 154.538 52.3688 154.281 52.5601L153.507 53.1331L152.636 53.6109C151.606 54.057 150.318 54.3435 148.77 54.4714C146.901 54.3435 145.517 54.1522 144.615 53.8974C142.166 53.1965 139.459 52.0179 136.495 50.3614C132.885 48.0049 130.148 46.3158 128.279 45.2967C123.446 42.6211 120.191 40.7415 118.516 39.659C116.389 38.3207 114.618 36.9507 113.2 35.549C112.233 34.5933 111.427 33.5742 110.784 32.4917C109.945 31.1534 109.494 29.7834 109.43 28.3817C109.173 26.9809 109.43 25.3879 110.204 23.6035C110.976 22.1383 111.975 20.9596 113.2 20.0684C115.069 18.5388 117.646 17.3284 120.933 16.4362C122.028 16.0545 123.253 15.8949 124.605 15.9584C124.992 15.9584 125.347 15.9911 125.67 16.0545C125.734 15.2258 125.862 14.3663 126.055 13.4741L127.699 9.17375C128.15 8.40943 128.535 7.80375 128.858 7.35766C121.577 7.48552 114.586 8.6642 107.884 10.8937L100.634 14.1433L99.8601 14.6211C98.1855 15.768 97.1868 17.5514 96.864 19.9723C96.6714 21.947 96.864 24.0813 97.4436 26.3752C97.7664 28.0952 98.2818 29.9113 98.9898 31.8225C100.279 35.3259 101.342 38.0025 102.18 39.8493C103.598 43.2267 104.597 45.7745 105.176 47.4944C105.756 47.431 106.143 47.6223 106.337 48.0684C106.658 48.7693 106.402 49.8835 105.563 51.4131C105.176 52.2409 104.436 53.3561 103.34 54.7579L97.638 62.403C95.382 64.9507 93.4809 67.2129 91.9347 69.1876C89.4861 72.118 87.5528 74.2523 86.135 75.5906C83.3636 77.9479 80.7224 79.3814 78.2077 79.8909L75.9856 80.1774C74.8888 80.1774 74.1166 80.114 73.6654 79.9861L69.7027 78.744C68.0923 78.0431 65.9967 76.8962 63.4198 75.3041C57.1047 71.2902 53.7537 69.1876 53.3667 68.9963C50.144 67.2129 47.3103 66.4486 44.8598 66.7033L43.0247 67.1811L41.1878 67.9455C39.8983 68.7098 38.8355 69.4107 37.9972 70.0481C36.451 71.195 34.8086 72.7554 33.0679 74.7301L29.394 79.0305C26.3658 83.1088 24.0777 86.0074 22.5315 87.7274C27.3004 87.4726 32.8112 87.313 39.0601 87.2495C39.77 85.8478 40.5742 84.5739 41.4766 83.427C42.5735 82.0887 43.6364 81.0696 44.6672 80.3688C45.311 79.8592 46.2455 79.4449 47.4707 79.1266C48.5657 78.8718 49.8231 78.9036 51.2409 79.2218L51.0464 79.1266C54.6561 79.9544 58.4262 82.2483 62.3569 86.0074C62.6136 86.1978 62.8062 86.5169 62.9365 86.963C68.6719 86.8986 74.7925 86.8669 81.302 86.8669C82.5254 86.8669 83.6222 87.0265 84.5888 87.3447C86.135 87.7908 86.9072 88.4917 86.9072 89.4473C86.9072 91.1673 85.0382 92.0277 81.302 92.0277C48.6941 92.0277 25.4634 91.6134 11.61 90.7856L1.94391 89.6386C1.94391 89.7656 1.90993 90.0847 1.84574 90.5943C1.65317 91.6134 1.55689 92.4412 1.55689 93.0786C1.29825 94.6716 1.29825 96.4233 1.55689 98.3346C1.74946 99.6728 2.07229 100.82 2.5235 101.775C3.16727 103.113 4.19807 104.165 5.61588 104.929C6.19547 105.247 7.0658 105.502 8.22686 105.693C8.87063 105.82 9.93352 105.98 11.4155 106.171L19.0521 106.744C22.7902 106.872 29.394 107.063 38.8676 107.318C48.1466 107.573 57.0065 107.636 65.4492 107.509C68.9287 107.381 74.3092 107.222 81.5908 107.031C88.8744 106.649 94.6079 105.598 98.7972 103.877C99.2484 103.75 99.8922 103.464 100.73 103.018L104.21 100.342C104.468 100.214 105.048 99.7046 105.95 98.8124C108.012 96.7742 110.204 94.1938 112.522 91.0721L126.538 73.2015C130.922 67.5311 133.822 65.1738 135.238 66.1294C135.755 66.512 135.851 67.2446 135.528 68.3281C134.949 70.0481 133.338 72.7237 130.695 76.3549C127.408 80.4322 124.992 83.4587 123.446 85.4335L116.679 94.1303C114.359 97.252 112.007 99.9911 109.622 102.348L107.593 104.165L103.051 107.413L100.73 108.56C95.9616 110.408 89.6465 111.522 81.7853 111.905C79.8521 111.968 74.4395 112 65.5455 112C56.5893 112 47.6312 111.745 38.675 111.236C34.0987 111.044 27.4287 110.598 18.6651 109.898C17.1189 109.77 14.5419 109.421 10.9322 108.847L5.90662 107.7L4.36043 106.935C2.61978 105.916 1.42662 104.451 0.782849 102.54C0.267451 101.201 0.0106955 99.8324 0.0106955 98.4307C-0.0534932 96.455 0.171167 94.6081 0.686565 92.8872L1.55689 90.4981C1.55689 90.3078 1.58898 90.1482 1.65317 90.0203V89.9251C1.71736 89.7982 1.78155 89.7021 1.84574 89.6386H1.65317V89.3521L11.61 88.2052C14.4456 88.0139 17.6343 87.8543 21.1779 87.7274L27.3645 77.5018C28.5898 75.5906 29.7169 73.9975 30.7477 72.7237C32.6167 70.3663 34.2913 68.5185 35.7752 67.1811C37.1269 66.0977 38.3522 65.2381 39.4471 64.6007L41.6711 63.5499L44.3765 62.7847C47.7936 62.2751 51.4976 63.0721 55.4924 65.1738C57.5559 66.1938 61.0674 68.2954 66.0288 71.4815C68.6719 73.0102 70.573 73.9975 71.7322 74.4436C73.9882 75.3358 75.8252 75.5588 77.2411 75.1128C78.9176 74.7945 80.7224 73.711 82.6556 71.8632C83.8148 70.8441 85.5554 68.8694 87.8738 65.939L99.1842 51.8909C100.279 50.4892 101.342 49.374 102.373 48.5462C102.954 48.1636 103.534 47.8771 104.114 47.6858C102.18 44.8189 100.763 42.5893 99.8601 40.9963C98.0571 37.6833 96.6714 35.0077 95.7048 32.9695C94.8024 30.9938 94.0604 29.0826 93.4809 27.2357C92.7068 24.2409 92.3859 21.6922 92.5143 19.5906C92.6426 17.8697 93.0297 16.3093 93.6734 14.9076C94.5117 13.3145 95.6406 11.9455 97.0566 10.7985L101.406 8.3133C101.729 8.18638 103.34 7.51725 106.239 6.30684C106.821 6.11552 108.592 5.54251 111.556 4.58687L117.453 3.24861C121.32 2.6756 123.414 2.38909 123.736 2.38909C125.088 2.26124 126.153 2.19778 126.925 2.19778H130.503C131.211 2.06993 132.177 2.26124 133.402 2.77079C135.336 1.49692 137.526 0.63647 139.974 0.190381L142.102 0ZM63.129 97.7616C63.4518 98.0798 63.6123 98.4624 63.6123 98.9085C63.6123 99.4181 63.4518 99.8324 63.129 100.151C62.8062 100.469 62.4531 100.628 62.0661 100.628C61.6149 100.628 61.2279 100.469 60.907 100.151C60.5841 99.8324 60.4237 99.4181 60.4237 98.9085C60.4237 98.4624 60.5841 98.0798 60.907 97.7616C61.2279 97.4433 61.6149 97.2837 62.0661 97.2837C62.4531 97.2837 62.8062 97.4433 63.129 97.7616ZM122.188 68.8059C122.64 68.7415 123.059 68.8376 123.446 69.0924C123.769 69.3472 123.961 69.6972 124.025 70.1432C124.089 70.5893 123.993 71.0037 123.736 71.3854L115.23 82.8531C114.907 83.2991 114.455 83.5222 113.876 83.5222C113.619 83.5222 113.296 83.3953 112.909 83.1405C112.586 82.8848 112.394 82.5348 112.33 82.0887C112.266 81.6426 112.362 81.2292 112.62 80.8466L121.125 69.3789C121.384 69.0607 121.739 68.8694 122.188 68.8059ZM112.137 86.963L111.75 87.4409C111.299 87.8869 110.848 88.1091 110.396 88.1091C110.14 88.1091 109.817 87.9821 109.43 87.7274C109.107 87.4091 108.914 87.0265 108.85 86.5804C108.786 86.1343 108.882 85.7517 109.139 85.4335L109.526 84.9556C109.849 84.6374 110.236 84.4461 110.687 84.3826C111.137 84.3182 111.524 84.4144 111.846 84.6691C112.169 84.9874 112.362 85.37 112.426 85.8161C112.49 86.2622 112.394 86.6439 112.137 86.963ZM9.19347 98.9085C9.19347 99.2902 9.03111 99.7046 8.71016 100.151C8.25895 100.469 7.83984 100.628 7.45282 100.628C7.0658 100.628 6.71276 100.469 6.38993 100.151C6.06709 99.8324 5.90662 99.4181 5.90662 98.9085C5.90662 98.4624 6.06709 98.0798 6.38993 97.7616C6.71276 97.4433 7.0658 97.2837 7.45282 97.2837C7.83984 97.2837 8.25895 97.4433 8.71016 97.7616C9.03111 98.2076 9.19347 98.5893 9.19347 98.9085ZM15.4764 97.7616C15.7974 97.4433 16.1844 97.2837 16.6356 97.2837C17.0226 97.2837 17.3756 97.4433 17.6985 97.7616C18.0213 98.0798 18.1818 98.4624 18.1818 98.9085C18.1818 99.4181 18.0213 99.8324 17.6985 100.151C17.3756 100.469 17.0226 100.628 16.6356 100.628C16.1844 100.628 15.7974 100.469 15.4764 100.151C15.1536 99.8324 14.9931 99.4181 14.9931 98.9085C14.9931 98.4624 15.1536 98.0798 15.4764 97.7616ZM24.4647 97.7616C24.9159 97.4433 25.3351 97.2837 25.7221 97.2837C26.1091 97.2837 26.4621 97.4433 26.785 97.7616C27.1078 98.0798 27.2683 98.4624 27.2683 98.9085C27.2683 99.4181 27.1078 99.8324 26.785 100.151C26.4621 100.469 26.1091 100.628 25.7221 100.628C25.3351 100.628 24.9159 100.469 24.4647 100.151C24.1419 99.7046 23.9814 99.2902 23.9814 98.9085C23.9814 98.5893 24.1419 98.2076 24.4647 97.7616ZM36.451 98.9085C36.451 99.2902 36.2906 99.7046 35.9677 100.151C35.5165 100.469 35.1295 100.628 34.8086 100.628C34.4215 100.628 34.0024 100.469 33.5512 100.151C33.2284 99.7046 33.0679 99.2902 33.0679 98.9085C33.0679 98.5893 33.2284 98.2076 33.5512 97.7616C34.0024 97.4433 34.4215 97.2837 34.8086 97.2837C35.1295 97.2837 35.5165 97.4433 35.9677 97.7616C36.2906 98.2076 36.451 98.5893 36.451 98.9085ZM50.0798 83.8087L49.8873 83.7135C48.4694 83.1405 46.5041 83.8404 43.9913 85.8161L42.347 87.1534C46.5362 87.09 50.9822 87.0265 55.6869 86.963C53.495 85.3065 51.626 84.2548 50.0798 83.8087ZM45.5375 98.9085C45.5375 99.2902 45.377 99.7046 45.0542 100.151C44.603 100.469 44.1839 100.628 43.7969 100.628C43.4099 100.628 43.0568 100.469 42.734 100.151C42.4112 99.8324 42.2507 99.4181 42.2507 98.9085C42.2507 98.4624 42.4112 98.0798 42.734 97.7616C43.0568 97.4433 43.4099 97.2837 43.7969 97.2837C44.1839 97.2837 44.603 97.4433 45.0542 97.7616C45.377 98.2076 45.5375 98.5893 45.5375 98.9085ZM54.1407 97.7616C54.4616 98.2076 54.624 98.5893 54.624 98.9085C54.624 99.2902 54.4616 99.7046 54.1407 100.151C53.6895 100.469 53.2704 100.628 52.8834 100.628C52.4963 100.628 52.1433 100.469 51.8205 100.151C51.4976 99.8324 51.3372 99.4181 51.3372 98.9085C51.3372 98.4624 51.4976 98.0798 51.8205 97.7616C52.1433 97.4433 52.4963 97.2837 52.8834 97.2837C53.2704 97.2837 53.6895 97.4433 54.1407 97.7616ZM152.057 9.17375C152.251 9.55638 152.283 9.9698 152.153 10.4159C151.832 11.1168 151.285 11.4677 150.511 11.4677H150.027L149.448 11.2763C148.997 11.1485 148.674 10.862 148.481 10.4159C148.287 10.0342 148.255 9.61984 148.385 9.17375C148.513 8.72766 148.804 8.40943 149.253 8.21811C149.64 8.0268 150.059 7.99507 150.511 8.12292L151.09 8.3133C151.541 8.44116 151.864 8.72766 152.057 9.17375ZM153.023 13.4741C152.636 13.2193 152.412 12.8367 152.348 12.3272C152.283 11.8811 152.412 11.4994 152.735 11.1802C152.991 10.7985 153.378 10.5755 153.894 10.512C154.345 10.4476 154.732 10.5755 155.053 10.8937L156.407 12.4233C157.116 13.2511 157.728 14.3663 158.244 15.768C158.566 16.7237 158.211 17.4245 157.181 17.8697L156.697 17.9658C155.923 17.9658 155.376 17.5832 155.053 16.8189C154.796 16.0545 154.377 15.1941 153.798 14.2384L153.023 13.4741Z" fill="#9A9A9A"/>
</svg>
