<svg width="118" height="142" viewBox="0 0 118 142" fill="none" xmlns="http://www.w3.org/2000/svg">
<path d="M106.844 33.0485C108.365 33.0485 109.788 33.7951 110.647 35.0629C111.379 36.1334 112.591 36.7814 113.873 36.7814H114.112C116.253 36.7814 118 35.0347 118 32.8936V17.3423C118 16.5816 117.394 15.9759 116.634 15.9759H101.082C100.448 15.9759 99.9272 15.4547 99.9272 14.8208V14.5109C99.9272 14.1306 100.124 13.7643 100.448 13.539C102.463 12.1726 103.66 9.90468 103.66 7.46775C103.66 5.4534 102.829 3.52358 101.364 2.14312C99.8849 0.748569 97.9551 0.0301658 95.9126 0.142856C92.067 0.354151 88.9539 3.66444 88.9821 7.52409C88.9962 9.91877 90.1935 12.1726 92.1797 13.5249C92.5177 13.7503 92.715 14.1165 92.715 14.4968V14.7926C92.715 15.4265 92.1938 15.9477 91.5599 15.9477H76.0086C75.2479 15.9477 74.6422 16.5534 74.6422 17.3141V32.8513C74.6422 33.4852 74.121 34.0064 73.4871 34.0064H72.9518C72.5715 34.0064 72.2053 33.8092 71.9799 33.4852C70.6135 31.4709 68.3456 30.2735 65.9087 30.2735C63.8802 30.2735 61.9786 31.0905 60.584 32.5555C59.1895 34.0346 58.4711 35.9644 58.5838 38.0069C58.781 41.8525 62.0772 44.9656 65.965 44.9515C68.3738 44.9374 70.6135 43.7401 71.9799 41.7539C72.2053 41.4158 72.5715 41.2186 72.9518 41.2186H73.4871C74.121 41.2186 74.6422 41.7398 74.6422 42.3737V57.9109C74.6422 57.925 74.6422 57.9391 74.6422 57.9391C74.6422 57.9532 74.6422 57.9672 74.6422 57.9672V73.5045C74.6422 74.1384 74.121 74.6596 73.4871 74.6596H72.9518C72.5715 74.6596 72.2053 74.4623 71.9799 74.1384C70.6135 72.124 68.3456 70.9267 65.9087 70.9267C63.8802 70.9267 61.9786 71.7437 60.584 73.2087C59.1895 74.6877 58.4711 76.6176 58.5838 78.6601C58.781 82.5056 62.0631 85.6046 65.9228 85.6046C65.9368 85.6046 65.9509 85.6046 65.965 85.6046C68.3738 85.5905 70.6135 84.3932 71.9799 82.407C72.2053 82.069 72.5715 81.8717 72.9518 81.8717H73.4871C74.121 81.8717 74.6422 82.3929 74.6422 83.0268V98.5641C74.6422 99.3247 75.2479 99.9304 76.0086 99.9304H91.5458C93.6869 99.9304 95.4336 98.1837 95.4336 96.0426C95.4336 94.7607 94.7856 93.5493 93.701 92.8027C92.4614 91.9435 91.7007 90.5489 91.7007 89.0417C91.6867 86.6188 93.6306 84.5341 96.0393 84.4073C97.3212 84.3369 98.5326 84.7876 99.4623 85.661C100.392 86.5343 100.899 87.7317 100.899 88.9994C100.899 90.5208 100.138 91.9435 98.8848 92.8027C97.8142 93.5352 97.1662 94.7467 97.1662 96.0285C97.1662 98.1696 98.9129 99.9163 101.054 99.9163H116.591C117.352 99.9163 117.958 99.3106 117.958 98.55V83.0973C117.958 80.9561 116.211 79.2094 114.07 79.2094H113.83C112.549 79.2094 111.337 79.8574 110.591 80.9421C109.731 82.1957 108.323 82.9423 106.815 82.9423C106.801 82.9423 106.801 82.9423 106.787 82.9423C104.378 82.9423 102.308 80.9984 102.181 78.5896C102.111 77.3078 102.561 76.0964 103.435 75.1667C104.308 74.237 105.505 73.7299 106.773 73.7299C108.294 73.7299 109.717 74.4764 110.576 75.7442C111.309 76.8148 112.52 77.4627 113.802 77.4627H114.042C116.183 77.4627 117.929 75.716 117.929 73.5749V58.0236C117.929 58.0095 117.929 57.9954 117.929 57.9954C117.929 57.9813 117.929 57.9672 117.929 57.9672V42.4159C117.929 40.2748 116.183 38.5281 114.042 38.5281H113.802C112.52 38.5281 111.309 39.1761 110.576 40.2607C109.717 41.5144 108.309 42.261 106.801 42.261C106.787 42.261 106.787 42.261 106.773 42.261C104.364 42.261 102.294 40.3171 102.167 37.9083C102.096 36.6265 102.547 35.415 103.421 34.4853C104.378 33.5556 105.562 33.0485 106.844 33.0485ZM115.267 73.5749C115.267 74.2088 114.746 74.73 114.112 74.73H113.873C113.492 74.73 113.126 74.5328 112.901 74.2088C111.534 72.1944 109.266 70.9971 106.829 70.9971C104.801 70.9971 102.899 71.8141 101.505 73.2791C100.11 74.7581 99.3919 76.688 99.5046 78.7305C99.7018 82.5761 102.984 85.6751 106.829 85.6751C106.844 85.6751 106.858 85.6751 106.872 85.6751C109.28 85.661 111.52 84.4636 112.887 82.4775C113.112 82.1394 113.478 81.9422 113.859 81.9422H114.098C114.732 81.9422 115.253 82.4634 115.253 83.0973V97.2681H101.082C100.448 97.2681 99.9272 96.7469 99.9272 96.113C99.9272 95.7327 100.124 95.3665 100.448 95.1411C102.463 93.7747 103.66 91.5068 103.66 89.0699C103.66 87.0555 102.829 85.1257 101.364 83.7452C99.9835 82.4352 98.2086 81.7309 96.3211 81.7309C96.1802 81.7309 96.0393 81.7309 95.8985 81.745C92.0529 81.9563 88.9398 85.2666 88.968 89.1262C88.9821 91.5209 90.1794 93.7747 92.1656 95.127C92.5037 95.3524 92.7009 95.7186 92.7009 96.0989C92.7009 96.7328 92.1797 97.254 91.5458 97.254H77.3749V83.0973C77.3749 80.9561 75.6282 79.2094 73.4871 79.2094H72.9518C71.67 79.2094 70.4585 79.8574 69.712 80.9421C68.8527 82.1957 67.4441 82.9423 65.9368 82.9423C65.9227 82.9423 65.9227 82.9423 65.9087 82.9423C63.4999 82.9423 61.4292 80.9984 61.3024 78.5896C61.232 77.3078 61.6828 76.0964 62.5561 75.1667C63.4295 74.237 64.6268 73.7299 65.8946 73.7299C67.4159 73.7299 68.8386 74.4764 69.6979 75.7442C70.4304 76.8148 71.6418 77.4627 72.9237 77.4627H73.4589C75.6001 77.4627 77.3468 75.716 77.3468 73.5749V59.39H91.5176C93.6587 59.39 95.4054 57.6433 95.4054 55.5021V55.2063C95.4054 53.9245 94.7575 52.713 93.6728 51.9665C92.4473 51.1354 91.7148 49.7549 91.6726 48.2899C91.7289 45.9234 93.6447 43.9232 96.0112 43.7964C97.293 43.726 98.5044 44.1767 99.4341 45.0501C100.336 45.8953 100.829 47.0363 100.871 48.2618C100.843 49.7408 100.096 51.1213 98.8566 51.9665C97.786 52.699 97.1381 53.9104 97.1381 55.1922V55.4881C97.1381 57.6292 98.8848 59.3759 101.026 59.3759H115.197V73.5749H115.267ZM99.5046 38.0492C99.7018 41.8947 102.998 44.9937 106.844 44.9937C106.858 44.9937 106.872 44.9937 106.886 44.9937C109.295 44.9796 111.534 43.7823 112.901 41.7961C113.126 41.4581 113.492 41.2609 113.873 41.2609H114.112C114.746 41.2609 115.267 41.7821 115.267 42.4159V56.5868H101.082C100.448 56.5868 99.9272 56.0656 99.9272 55.4317C99.9272 55.0514 100.124 54.6851 100.448 54.4598C102.463 53.0934 103.66 50.8255 103.66 48.3885C103.66 48.3604 103.66 48.3322 103.66 48.304C103.66 48.2618 103.66 48.2054 103.66 48.1632C103.66 46.1488 102.829 44.219 101.364 42.8385C99.8849 41.444 97.9551 40.7256 95.9126 40.8383C92.067 41.0496 88.9539 44.3599 88.9821 48.2195C88.9821 48.2618 88.9821 48.304 88.9821 48.3463C88.9821 48.3885 88.9821 48.4167 88.9821 48.459C88.9962 50.8536 90.1935 53.1075 92.1797 54.4598C92.5177 54.6851 92.715 55.0514 92.715 55.4317C92.715 56.0656 92.1938 56.5868 91.5599 56.5868H77.3749V42.4159C77.3749 40.2748 75.6282 38.5281 73.4871 38.5281H72.9518C71.67 38.5281 70.4586 39.1761 69.7261 40.2607C68.8668 41.5144 67.4582 42.261 65.9509 42.261C65.9368 42.261 65.9368 42.261 65.9228 42.261C63.514 42.261 61.4433 40.3171 61.3165 37.9083C61.2461 36.6265 61.6969 35.415 62.5702 34.4853C63.4436 33.5556 64.6409 33.0485 65.9087 33.0485C67.43 33.0485 68.8527 33.7951 69.712 35.0629C70.4445 36.1334 71.6559 36.7814 72.9377 36.7814H73.473C75.6141 36.7814 77.3609 35.0347 77.3609 32.8936V18.7086H91.5317C93.6728 18.7086 95.4195 16.9619 95.4195 14.8208V14.5109C95.4195 13.2291 94.7716 12.0176 93.6869 11.2711C92.4473 10.4118 91.6867 9.01725 91.6867 7.51001C91.6726 5.08716 93.6165 3.00238 96.0252 2.8756C97.3071 2.81926 98.5185 3.25594 99.4482 4.12929C100.378 5.00264 100.885 6.19998 100.885 7.46775C100.885 8.98907 100.124 10.4118 98.8707 11.2711C97.8001 12.0035 97.1521 13.215 97.1521 14.4968V14.7926C97.1521 16.9338 98.8989 18.6805 101.04 18.6805H115.211V32.8513C115.211 33.4852 114.69 34.0064 114.056 34.0064H113.816C113.436 34.0064 113.07 33.8092 112.844 33.4852C111.478 31.4709 109.21 30.2735 106.773 30.2735C104.745 30.2735 102.843 31.0905 101.448 32.5555C100.11 34.0768 99.406 36.0067 99.5046 38.0492Z" fill="#9A9A9A"/>
<path d="M61.7671 106.593C61.3868 105.96 60.5697 105.748 59.9218 106.115L55.3719 108.721L51.2023 103.086C52.5828 100.128 53.752 95.0145 51.5263 90.5773C51.6954 90.5492 51.8503 90.5069 51.9912 90.4365C52.3152 90.2674 52.5405 89.9716 52.6391 89.6195L56.9214 74.688C57.2172 73.6878 57.0904 72.6314 56.5833 71.7298C56.0762 70.8142 55.2451 70.1662 54.2309 69.8704L54.0196 69.8141C52.78 69.4619 51.4418 69.7437 50.4276 70.5747C49.2584 71.5326 47.6948 71.8707 46.2439 71.4622C43.9056 70.8142 42.4547 68.3491 43.0041 65.9967C43.2999 64.743 44.0606 63.7006 45.1593 63.0526C46.258 62.4047 47.5399 62.2356 48.7654 62.5878C50.2304 63.0104 51.3855 64.1232 51.8644 65.5741C52.2729 66.8137 53.2589 67.7575 54.4845 68.1096L54.7098 68.1801C56.7805 68.7717 58.9357 67.5744 59.5274 65.5178L63.8096 50.5722C64.0209 49.8397 63.5983 49.0931 62.8658 48.8818L47.9202 44.5996C47.6244 44.515 47.3849 44.3178 47.23 44.0502C47.075 43.7825 47.0469 43.4726 47.1314 43.1768L47.2159 42.881C47.3145 42.5148 47.6103 42.2331 47.9766 42.1063C50.2867 41.3456 52.0616 39.5003 52.7377 37.162C53.2871 35.2321 53.0195 33.1333 52.0053 31.4007C50.9629 29.6399 49.3007 28.4284 47.3145 27.9777C43.5535 27.1184 39.6515 29.4427 38.6092 33.1615C37.9612 35.4716 38.4965 37.9649 40.0319 39.8102C40.2854 40.1201 40.384 40.5286 40.2713 40.8948L40.2009 41.1766C40.0178 41.7964 39.3839 42.1485 38.7641 41.9795L23.8185 37.6973C23.086 37.486 22.3394 37.9085 22.1281 38.641L17.8318 53.5866C17.7473 53.8824 17.5501 54.136 17.2824 54.2769C17.0148 54.4318 16.7049 54.46 16.4091 54.3755L15.8879 54.2205C15.5217 54.1219 15.2399 53.8261 15.1132 53.4599C14.3525 51.1497 12.5072 49.3748 10.1689 48.6987C8.21085 48.1352 6.16833 48.4029 4.42163 49.4312C2.67492 50.4595 1.44941 52.1217 0.984564 54.1219C0.111211 57.883 2.43546 61.7849 6.15425 62.8273C8.46441 63.4752 10.9577 62.954 12.8171 61.4186C13.127 61.1651 13.5355 61.0665 13.9017 61.1792L14.4088 61.32C15.0286 61.4891 15.3808 62.137 15.1977 62.7568L10.9154 77.6883C10.7041 78.4208 11.1267 79.1674 11.8451 79.3787L12.7326 79.6323L10.4224 93.5777C10.028 95.9442 10.4788 98.3812 11.6902 100.452L26.3118 125.356L23.1142 127.188C22.7902 127.371 22.5648 127.681 22.4662 128.033C22.3676 128.385 22.438 128.765 22.6212 129.089L29.5235 140.387C29.777 140.809 30.2278 141.035 30.6926 141.035C30.918 141.035 31.1575 140.978 31.3688 140.851L68.0919 119.821C68.4158 119.637 68.6412 119.328 68.7398 118.975C68.8384 118.623 68.768 118.243 68.5849 117.919L61.7671 106.593ZM17.8882 63.4612C18.4798 61.3905 17.2824 59.2352 15.2118 58.6436L14.7047 58.5028C13.4651 58.1506 12.1269 58.4323 11.1267 59.2634C9.95756 60.2213 8.39397 60.5594 6.94308 60.1509C4.60475 59.5029 3.15386 57.0519 3.70322 54.6854C3.99904 53.4317 4.7597 52.3893 5.85843 51.7413C6.95717 51.0934 8.23902 50.9384 9.46454 51.2906C10.9295 51.7132 12.0846 52.826 12.5635 54.2769C12.972 55.5165 13.9581 56.4602 15.1836 56.8124L15.7048 56.9674C16.7049 57.2491 17.7614 57.1364 18.6629 56.6293C19.5785 56.1222 20.2265 55.2911 20.5223 54.2909L24.4383 40.6695L38.0598 44.5855C40.1164 45.1771 42.2857 43.9798 42.8773 41.9091L42.9618 41.6273C43.314 40.3877 43.0323 39.0495 42.2012 38.0494C41.2433 36.8802 40.9052 35.3307 41.3137 33.8799C41.9617 31.5415 44.4127 30.0906 46.7651 30.6259C48.0188 30.9076 49.0612 31.6824 49.7092 32.7811C50.3572 33.8799 50.5262 35.1617 50.174 36.3872C49.7514 37.8522 48.6386 39.0073 47.1877 39.4862C45.9481 39.8947 45.0043 40.8808 44.6522 42.1063L44.5536 42.4021C44.2719 43.4022 44.3846 44.4446 44.8917 45.3602C45.3988 46.2758 46.2299 46.9238 47.2159 47.2196L60.8374 51.1356L56.9214 64.7571C56.7524 65.3769 56.1044 65.729 55.4987 65.5459L55.2733 65.4755C54.907 65.3769 54.6112 65.0811 54.4845 64.7148C53.7238 62.4047 51.8785 60.6298 49.5401 59.9537C47.5821 59.3902 45.5396 59.6578 43.7929 60.6861C42.0462 61.7144 40.8207 63.3766 40.3559 65.3628C39.4825 69.1239 41.8068 73.0258 45.5255 74.0822C47.8357 74.7302 50.329 74.209 52.1884 72.6736C52.4983 72.4201 52.9068 72.3214 53.2871 72.4341L53.4984 72.4905C53.7942 72.575 54.0478 72.7722 54.1886 73.0399C54.3436 73.3075 54.3718 73.6174 54.2872 73.9273L50.3853 87.5488L37.6795 83.9004C37.7358 82.9425 37.6795 82.0128 37.4822 81.1113C39.4262 80.2239 40.8911 78.5335 41.4969 76.4628C42.0462 74.533 41.7786 72.4341 40.7644 70.7015C39.7361 68.9548 38.0598 67.7293 36.0736 67.2785C32.3126 66.4052 28.4107 68.7435 27.3683 72.4623C27.2837 72.7863 27.2133 73.0962 27.1711 73.4343C26.2554 73.8428 25.5511 74.688 25.368 75.7444L24.5933 80.1394L13.9722 77.0967L17.8882 63.4612ZM29.9742 73.4061C29.9883 73.3357 30.0024 73.2793 30.0165 73.2089C30.6645 70.8706 33.1155 69.4056 35.4679 69.9549C36.7216 70.2367 37.764 71.0114 38.4119 72.1102C39.0599 73.2089 39.229 74.4907 38.8768 75.7163C38.5246 76.9418 37.6795 77.956 36.5666 78.5335C35.2284 76.0121 32.876 74.1104 29.9742 73.4061ZM14.113 99.0291C13.2256 97.5078 12.8875 95.7188 13.1833 93.9862L15.4371 80.3507L24.1284 82.8439L21.2689 99.2123C21.1421 99.9588 21.6351 100.663 22.3817 100.79C23.1283 100.917 23.8326 100.424 23.9594 99.6771L28.0726 76.2093C28.1008 76.0121 28.298 75.8712 28.4952 75.8994C32.4675 76.3924 35.313 79.914 34.9608 83.9004L34.4396 89.9153C34.3973 90.3379 34.5664 90.7464 34.8763 91.0422C35.158 91.3098 41.68 97.5501 35.3552 105.509C34.8904 106.1 34.989 106.96 35.5806 107.425C35.8341 107.622 36.13 107.72 36.4258 107.72C36.8343 107.72 37.2287 107.537 37.4963 107.199C44.2719 98.6488 38.9331 91.4648 37.2146 89.5349L37.4682 86.6754L47.4272 89.5349C52.6251 94.6905 48.5964 102.241 48.4132 102.565C48.1597 103.03 48.1879 103.607 48.5118 104.044L52.9913 110.101L28.7628 123.976L14.113 99.0291ZM31.242 137.795L25.7624 128.822L28.9037 127.019C28.9178 127.005 28.9318 127.005 28.9459 127.005C28.96 126.99 28.9741 126.991 28.9882 126.976L60.119 109.157L65.5986 118.13L31.242 137.795Z" fill="#9A9A9A"/>
<path d="M61.7671 106.031C61.3868 105.397 60.5697 105.186 59.9218 105.552L55.3719 108.158L51.2023 102.523C52.5828 99.5654 53.752 94.452 51.5263 90.0148C51.6954 89.9867 51.8503 89.9444 51.9912 89.874C52.3152 89.7049 52.5405 89.4091 52.6391 89.057L56.9214 74.1255C57.2172 73.1253 57.0904 72.0689 56.5833 71.1673C56.0762 70.2517 55.2451 69.6037 54.2309 69.3079L54.0196 69.2516C52.78 68.8994 51.4418 69.1812 50.4276 70.0122C49.2584 70.9701 47.6948 71.3082 46.2439 70.8997C43.9056 70.2517 42.4547 67.7866 43.0041 65.4342C43.2999 64.1805 44.0606 63.1381 45.1593 62.4901C46.258 61.8422 47.5399 61.6731 48.7654 62.0253C50.2304 62.4479 51.3855 63.5607 51.8644 65.0116C52.2729 66.2512 53.2589 67.195 54.4845 67.5471L54.7098 67.6176C56.7805 68.2092 58.9357 67.0119 59.5274 64.9553L63.8096 50.0097C64.0209 49.2772 63.5983 48.5306 62.8658 48.3193L47.9202 44.0371C47.6244 43.9525 47.3849 43.7553 47.23 43.4877C47.075 43.22 47.0469 42.9101 47.1314 42.6143L47.2159 42.3185C47.3145 41.9523 47.6103 41.6706 47.9766 41.5438C50.2867 40.7831 52.0616 38.9378 52.7377 36.5995C53.2871 34.6696 53.0195 32.5708 52.0053 30.8382C50.9629 29.0774 49.3007 27.8659 47.3145 27.4152C43.5535 26.5559 39.6515 28.8802 38.6092 32.599C37.9612 34.9091 38.4965 37.4024 40.0319 39.2477C40.2854 39.5576 40.384 39.9661 40.2713 40.3323L40.2009 40.6141C40.0178 41.2339 39.3839 41.586 38.7641 41.417L23.8185 37.1348C23.086 36.9235 22.3394 37.346 22.1281 38.0785L17.8318 53.0241C17.7473 53.3199 17.5501 53.5735 17.2824 53.7144C17.0148 53.8693 16.7049 53.8975 16.4091 53.813L15.8879 53.658C15.5217 53.5594 15.2399 53.2636 15.1132 52.8974C14.3525 50.5872 12.5072 48.8123 10.1689 48.1362C8.21085 47.5727 6.16833 47.8404 4.42163 48.8687C2.67492 49.897 1.44941 51.5592 0.984564 53.5594C0.111211 57.3205 2.43546 61.2224 6.15425 62.2648C8.46441 62.9127 10.9577 62.3915 12.8171 60.8561C13.127 60.6026 13.5355 60.504 13.9017 60.6167L14.4088 60.7575C15.0286 60.9266 15.3808 61.5745 15.1977 62.1943L10.9154 77.1258C10.7041 77.8583 11.1267 78.6049 11.8451 78.8162L12.7326 79.0698L10.4224 93.0152C10.028 95.3817 10.4788 97.8187 11.6902 99.8894L26.3118 124.794L23.1142 126.625C22.7902 126.808 22.5648 127.118 22.4662 127.47C22.3676 127.823 22.438 128.203 22.6212 128.527L29.5235 139.824C29.777 140.247 30.2278 140.472 30.6926 140.472C30.918 140.472 31.1575 140.416 31.3688 140.289L68.0919 119.258C68.4158 119.075 68.6412 118.765 68.7398 118.413C68.8384 118.061 68.768 117.68 68.5849 117.356L61.7671 106.031ZM17.8882 62.8987C18.4798 60.828 17.2824 58.6727 15.2118 58.0811L14.7047 57.9403C13.4651 57.5881 12.1269 57.8698 11.1267 58.7009C9.95756 59.6588 8.39397 59.9969 6.94308 59.5884C4.60475 58.9404 3.15386 56.4894 3.70322 54.1229C3.99904 52.8692 4.7597 51.8268 5.85843 51.1788C6.95717 50.5309 8.23902 50.3759 9.46454 50.7281C10.9295 51.1507 12.0846 52.2635 12.5635 53.7144C12.972 54.954 13.9581 55.8977 15.1836 56.2499L15.7048 56.4049C16.7049 56.6866 17.7614 56.5739 18.6629 56.0668C19.5785 55.5597 20.2265 54.7286 20.5223 53.7284L24.4383 40.107L38.0598 44.023C40.1164 44.6146 42.2857 43.4173 42.8773 41.3466L42.9618 41.0648C43.314 39.8252 43.0323 38.487 42.2012 37.4869C41.2433 36.3177 40.9052 34.7682 41.3137 33.3174C41.9617 30.979 44.4127 29.5281 46.7651 30.0634C48.0188 30.3451 49.0612 31.1199 49.7092 32.2186C50.3572 33.3174 50.5262 34.5992 50.174 35.8247C49.7514 37.2897 48.6386 38.4448 47.1877 38.9237C45.9481 39.3322 45.0043 40.3183 44.6522 41.5438L44.5536 41.8396C44.2719 42.8397 44.3846 43.8821 44.8917 44.7977C45.3988 45.7133 46.2299 46.3613 47.2159 46.6571L60.8374 50.5731L56.9214 64.1946C56.7524 64.8144 56.1044 65.1665 55.4987 64.9834L55.2733 64.913C54.907 64.8144 54.6112 64.5186 54.4845 64.1523C53.7238 61.8422 51.8785 60.0673 49.5401 59.3912C47.5821 58.8277 45.5396 59.0953 43.7929 60.1236C42.0462 61.1519 40.8207 62.8141 40.3559 64.8003C39.4825 68.5614 41.8068 72.4633 45.5255 73.5197C47.8357 74.1677 50.329 73.6465 52.1884 72.1111C52.4983 71.8576 52.9068 71.7589 53.2871 71.8716L53.4984 71.928C53.7942 72.0125 54.0478 72.2097 54.1886 72.4774C54.3436 72.745 54.3718 73.0549 54.2872 73.3648L50.3853 86.9863L37.6795 83.3379C37.7358 82.38 37.6795 81.4503 37.4822 80.5488C39.4262 79.6614 40.8911 77.971 41.4969 75.9003C42.0462 73.9705 41.7786 71.8716 40.7644 70.139C39.7361 68.3923 38.0598 67.1668 36.0736 66.716C32.3126 65.8427 28.4107 68.181 27.3683 71.8998C27.2837 72.2238 27.2133 72.5337 27.1711 72.8718C26.2554 73.2803 25.5511 74.1255 25.368 75.1819L24.5933 79.5769L13.9722 76.5342L17.8882 62.8987ZM29.9742 72.8436C29.9883 72.7732 30.0024 72.7168 30.0165 72.6464C30.6645 70.3081 33.1155 68.8431 35.4679 69.3924C36.7216 69.6742 37.764 70.4489 38.4119 71.5477C39.0599 72.6464 39.229 73.9282 38.8768 75.1538C38.5246 76.3793 37.6795 77.3935 36.5666 77.971C35.2284 75.4496 32.876 73.5479 29.9742 72.8436ZM14.113 98.4666C13.2256 96.9453 12.8875 95.1563 13.1833 93.4237L15.4371 79.7882L24.1284 82.2814L21.2689 98.6498C21.1421 99.3963 21.6351 100.101 22.3817 100.227C23.1283 100.354 23.8326 99.8612 23.9594 99.1146L28.0726 75.6468C28.1008 75.4496 28.298 75.3087 28.4952 75.3369C32.4675 75.8299 35.313 79.3515 34.9608 83.3379L34.4396 89.3528C34.3973 89.7754 34.5664 90.1839 34.8763 90.4797C35.158 90.7473 41.68 96.9876 35.3552 104.946C34.8904 105.538 34.989 106.397 35.5806 106.862C35.8341 107.059 36.13 107.158 36.4258 107.158C36.8343 107.158 37.2287 106.975 37.4963 106.637C44.2719 98.0863 38.9331 90.9023 37.2146 88.9724L37.4682 86.1129L47.4272 88.9724C52.6251 94.128 48.5964 101.678 48.4132 102.002C48.1597 102.467 48.1879 103.045 48.5118 103.481L52.9913 109.538L28.7628 123.414L14.113 98.4666ZM31.242 137.232L25.7624 128.259L28.9037 126.456C28.9178 126.442 28.9318 126.442 28.9459 126.442C28.96 126.428 28.9741 126.428 28.9882 126.414L60.119 108.595L65.5986 117.568L31.242 137.232Z" fill="#00AFE1"/>
</svg>
