<svg width="171" height="171" viewBox="0 0 171 171" fill="none" xmlns="http://www.w3.org/2000/svg">
<path d="M89.4652 0H81.2119V170.678H89.4652V0Z" fill="#F6F6F6"/>
<path d="M170.678 81.2124H0V89.4657H170.678V81.2124Z" fill="#F6F6F6"/>
<path d="M27.8984 22.0713L22.0625 27.9072L142.749 148.593L148.585 142.758L27.8984 22.0713Z" fill="#F6F6F6"/>
<path d="M142.749 22.0705L22.0625 142.757L27.8984 148.593L148.585 27.9064L142.749 22.0705Z" fill="#F6F6F6"/>
<path d="M7.88838 49.3464L4.77441 56.9897L162.839 121.386L165.953 113.743L7.88838 49.3464Z" fill="#F6F6F6"/>
<path d="M113.742 4.78535L49.3457 162.85L56.9891 165.964L121.386 7.89931L113.742 4.78535Z" fill="#F6F6F6"/>
<path d="M163.025 49.6336L4.6875 113.365L7.76927 121.021L166.107 57.2902L163.025 49.6336Z" fill="#F6F6F6"/>
<path d="M57.2562 4.69151L49.5996 7.77246L113.314 166.11L120.97 163.029L57.2562 4.69151Z" fill="#F6F6F6"/>
</svg>
