<svg width="122" height="122" viewBox="0 0 122 122" fill="none" xmlns="http://www.w3.org/2000/svg">
<path fill-rule="evenodd" clip-rule="evenodd" d="M3.79292 89.9668C3.79292 90.948 2.99806 91.7429 2.01685 91.7429C1.03704 91.7429 0.242188 90.948 0.242188 89.9668V85.1624C0.242188 84.1826 1.03704 83.3863 2.01685 83.3863C2.99806 83.3863 3.79292 84.1826 3.79292 85.1624V89.9668ZM3.79292 63.2806C3.79292 64.2618 2.99806 65.0567 2.01685 65.0567C1.03704 65.0567 0.242188 64.2618 0.242188 63.2806V58.4762C0.242188 57.4964 1.03704 56.7001 2.01685 56.7001C2.99806 56.7001 3.79292 57.4964 3.79292 58.4762V63.2806ZM3.79292 76.6237C3.79292 77.6049 2.99806 78.3998 2.01685 78.3998C1.03704 78.3998 0.242188 77.6049 0.242188 76.6237V71.8193C0.242188 70.8395 1.03704 70.0432 2.01685 70.0432C2.99806 70.0432 3.79292 70.8395 3.79292 71.8193V76.6237ZM3.79292 36.5958C3.79292 37.5756 2.99806 38.3704 2.01685 38.3704C1.03704 38.3704 0.242188 37.5756 0.242188 36.5958V31.7899C0.242188 30.8101 1.03704 30.0139 2.01685 30.0139C2.99806 30.0139 3.79292 30.8101 3.79292 31.7899V36.5958ZM3.79292 49.9389C3.79292 50.9187 2.99806 51.7136 2.01685 51.7136C1.03704 51.7136 0.242188 50.9187 0.242188 49.9389V45.1331C0.242188 44.1533 1.03704 43.3584 2.01685 43.3584C2.99806 43.3584 3.79292 44.1533 3.79292 45.1331V49.9389ZM32.3216 3.55073C31.3403 3.55073 30.5455 2.75446 30.5455 1.77466C30.5455 0.794855 31.3403 0 32.3216 0H37.126C38.1058 0 38.9021 0.794855 38.9021 1.77466C38.9021 2.75446 38.1058 3.55073 37.126 3.55073H32.3216ZM59.0078 3.55073C58.0266 3.55073 57.2317 2.75446 57.2317 1.77466C57.2317 0.794855 58.0266 0 59.0078 0H63.8122C64.792 0 65.5883 0.794855 65.5883 1.77466C65.5883 2.75446 64.792 3.55073 63.8122 3.55073H59.0078ZM45.6647 3.55073C44.6849 3.55073 43.8886 2.75446 43.8886 1.77466C43.8886 0.794855 44.6849 0 45.6647 0H50.4691C51.4489 0 52.2452 0.794855 52.2452 1.77466C52.2452 2.75446 51.4489 3.55073 50.4691 3.55073H45.6647ZM85.694 3.55073C84.7128 3.55073 83.9179 2.75446 83.9179 1.77466C83.9179 0.794855 84.7128 0 85.694 0H90.4984C91.4782 0 92.2745 0.794855 92.2745 1.77466C92.2745 2.75446 91.4782 3.55073 90.4984 3.55073H85.694ZM72.3495 3.55073C71.3697 3.55073 70.5748 2.75446 70.5748 1.77466C70.5748 0.794855 71.3697 0 72.3495 0H77.1553C78.1351 0 78.9314 0.794855 78.9314 1.77466C78.9314 2.75446 78.1351 3.55073 77.1553 3.55073H72.3495ZM122 89.9668C122 90.948 121.204 91.7429 120.224 91.7429C119.244 91.7429 118.45 90.948 118.45 89.9668V85.1624C118.45 84.1826 119.244 83.3863 120.224 83.3863C121.204 83.3863 122 84.1826 122 85.1624V89.9668ZM122 63.2806C122 64.2618 121.204 65.0567 120.224 65.0567C119.244 65.0567 118.45 64.2618 118.45 63.2806V58.4762C118.45 57.4964 119.244 56.7001 120.224 56.7001C121.204 56.7001 122 57.4964 122 58.4762V63.2806ZM122 76.6237C122 77.6049 121.204 78.3998 120.224 78.3998C119.244 78.3998 118.45 77.6049 118.45 76.6237V71.8193C118.45 70.8395 119.244 70.0432 120.224 70.0432C121.204 70.0432 122 70.8395 122 71.8193V76.6237ZM122 36.5958C122 37.5756 121.204 38.3704 120.224 38.3704C119.244 38.3704 118.45 37.5756 118.45 36.5958V31.7899C118.45 30.8101 119.244 30.0139 120.224 30.0139C121.204 30.0139 122 30.8101 122 31.7899V36.5958ZM122 49.9389C122 50.9187 121.204 51.7136 120.224 51.7136C119.244 51.7136 118.45 50.9187 118.45 49.9389V45.1331C118.45 44.1533 119.244 43.3584 120.224 43.3584C121.204 43.3584 122 44.1533 122 45.1331V49.9389ZM32.3216 121.758C31.3403 121.758 30.5455 120.962 30.5455 119.982C30.5455 119.002 31.3403 118.207 32.3216 118.207H37.126C38.1058 118.207 38.9021 119.002 38.9021 119.982C38.9021 120.962 38.1058 121.758 37.126 121.758H32.3216ZM59.0078 121.758C58.0266 121.758 57.2317 120.962 57.2317 119.982C57.2317 119.002 58.0266 118.207 59.0078 118.207H63.8122C64.792 118.207 65.5883 119.002 65.5883 119.982C65.5883 120.962 64.792 121.758 63.8122 121.758H59.0078ZM45.6647 121.758C44.6849 121.758 43.8886 120.962 43.8886 119.982C43.8886 119.002 44.6849 118.207 45.6647 118.207H50.4691C51.4489 118.207 52.2452 119.002 52.2452 119.982C52.2452 120.962 51.4489 121.758 50.4691 121.758H45.6647ZM85.694 121.758C84.7128 121.758 83.9179 120.962 83.9179 119.982C83.9179 119.002 84.7128 118.207 85.694 118.207H90.4984C91.4782 118.207 92.2745 119.002 92.2745 119.982C92.2745 120.962 91.4782 121.758 90.4984 121.758H85.694ZM72.3495 121.758C71.3697 121.758 70.5748 120.962 70.5748 119.982C70.5748 119.002 71.3697 118.207 72.3495 118.207H77.1553C78.1351 118.207 78.9314 119.002 78.9314 119.982C78.9314 120.962 78.1351 121.758 77.1553 121.758H72.3495ZM40.232 46.9176L61.1213 35.5129L82.0106 46.9176L61.1213 58.8348L40.232 46.9176ZM84.3528 49.6692V73.5615L62.8973 85.2753V61.9097L84.3528 49.6692ZM59.3452 85.2753L37.8898 73.5615V49.6692L59.3452 61.9097V85.2753ZM39.6136 27.4938C38.6338 27.4938 37.8375 26.6975 37.8375 25.7177C37.8375 24.7379 38.6338 23.9416 39.6136 23.9416H44.418C45.3978 23.9416 46.1941 24.7379 46.1941 25.7177C46.1941 26.6975 45.3978 27.4938 44.418 27.4938H39.6136ZM65.0871 27.4938C64.1073 27.4938 63.311 26.6975 63.311 25.7177C63.311 24.7379 64.1073 23.9416 65.0871 23.9416H69.8915C70.8727 23.9416 71.6676 24.7379 71.6676 25.7177C71.6676 26.6975 70.8727 27.4938 69.8915 27.4938H65.0871ZM52.3496 27.4938C51.3698 27.4938 50.575 26.6975 50.575 25.7177C50.575 24.7379 51.3698 23.9416 52.3496 23.9416H57.1555C58.1353 23.9416 58.9301 24.7379 58.9301 25.7177C58.9301 26.6975 58.1353 27.4938 57.1555 27.4938H52.3496ZM77.8245 27.4938C76.8447 27.4938 76.0484 26.6975 76.0484 25.7177C76.0484 24.7379 76.8447 23.9416 77.8245 23.9416H82.6289C83.6087 23.9416 84.405 24.7379 84.405 25.7177C84.405 26.6975 83.6087 27.4938 82.6289 27.4938H77.8245ZM39.6136 97.8151C38.6338 97.8151 37.8375 97.0202 37.8375 96.039C37.8375 95.0592 38.6338 94.2644 39.6136 94.2644H44.418C45.3978 94.2644 46.1941 95.0592 46.1941 96.039C46.1941 97.0202 45.3978 97.8151 44.418 97.8151H39.6136ZM65.0871 97.8151C64.1073 97.8151 63.311 97.0202 63.311 96.039C63.311 95.0592 64.1073 94.2644 65.0871 94.2644H69.8915C70.8727 94.2644 71.6676 95.0592 71.6676 96.039C71.6676 97.0202 70.8727 97.8151 69.8915 97.8151H65.0871ZM52.3496 97.8151C51.3698 97.8151 50.575 97.0202 50.575 96.039C50.575 95.0592 51.3698 94.2644 52.3496 94.2644H57.1555C58.1353 94.2644 58.9301 95.0592 58.9301 96.039C58.9301 97.0202 58.1353 97.8151 57.1555 97.8151H52.3496ZM77.8245 97.8151C76.8447 97.8151 76.0484 97.0202 76.0484 96.039C76.0484 95.0592 76.8447 94.2644 77.8245 94.2644H82.6289C83.6087 94.2644 84.405 95.0592 84.405 96.039C84.405 97.0202 83.6087 97.8151 82.6289 97.8151H77.8245ZM26.8197 82.3867C26.8197 83.3665 26.0248 84.1628 25.0436 84.1628C24.0638 84.1628 23.269 83.3665 23.269 82.3867V77.5809C23.269 76.6011 24.0638 75.8063 25.0436 75.8063C26.0248 75.8063 26.8197 76.6011 26.8197 77.5809V82.3867ZM26.8197 56.9133C26.8197 57.8931 26.0248 58.6879 25.0436 58.6879C24.0638 58.6879 23.269 57.8931 23.269 56.9133V52.1074C23.269 51.1276 24.0638 50.3328 25.0436 50.3328C26.0248 50.3328 26.8197 51.1276 26.8197 52.1074V56.9133ZM26.8197 69.6493C26.8197 70.6291 26.0248 71.4254 25.0436 71.4254C24.0638 71.4254 23.269 70.6291 23.269 69.6493V64.8449C23.269 63.8651 24.0638 63.0688 25.0436 63.0688C26.0248 63.0688 26.8197 63.8651 26.8197 64.8449V69.6493ZM26.8197 44.1758C26.8197 45.1556 26.0248 45.9519 25.0436 45.9519C24.0638 45.9519 23.269 45.1556 23.269 44.1758V39.3714C23.269 38.3916 24.0638 37.5953 25.0436 37.5953C26.0248 37.5953 26.8197 38.3916 26.8197 39.3714V44.1758ZM97.141 82.3867C97.141 83.3665 96.3462 84.1628 95.3664 84.1628C94.3866 84.1628 93.5903 83.3665 93.5903 82.3867V77.5809C93.5903 76.6011 94.3866 75.8063 95.3664 75.8063C96.3462 75.8063 97.141 76.6011 97.141 77.5809V82.3867ZM97.141 56.9133C97.141 57.8931 96.3462 58.6879 95.3664 58.6879C94.3866 58.6879 93.5903 57.8931 93.5903 56.9133V52.1074C93.5903 51.1276 94.3866 50.3328 95.3664 50.3328C96.3462 50.3328 97.141 51.1276 97.141 52.1074V56.9133ZM97.141 69.6493C97.141 70.6291 96.3462 71.4254 95.3664 71.4254C94.3866 71.4254 93.5903 70.6291 93.5903 69.6493V64.8449C93.5903 63.8651 94.3866 63.0688 95.3664 63.0688C96.3462 63.0688 97.141 63.8651 97.141 64.8449V69.6493ZM97.141 44.1758C97.141 45.1556 96.3462 45.9519 95.3664 45.9519C94.3866 45.9519 93.5903 45.1556 93.5903 44.1758V39.3714C93.5903 38.3916 94.3866 37.5953 95.3664 37.5953C96.3462 37.5953 97.141 38.3916 97.141 39.3714V44.1758ZM105.387 7.21581L100.336 2.16432C99.9732 1.80148 99.8644 1.25652 100.061 0.782148C100.257 0.307777 100.72 0 101.232 0H120.733C121.433 0 122 0.567551 122 1.26781V20.7679C122 21.2804 121.691 21.7434 121.217 21.9397C120.744 22.1359 120.197 22.0272 119.835 21.6644L114.207 16.0354L101.715 28.5286C101.477 28.7658 101.155 28.9 100.817 28.9C100.481 28.9 100.158 28.7658 99.9209 28.5286L92.8957 21.502C92.6571 21.2634 92.523 20.9415 92.523 20.6055C92.523 20.2681 92.6571 19.9462 92.8957 19.7076L105.387 7.21581ZM16.8551 7.21581L29.3469 19.7076C29.5855 19.9462 29.7182 20.2681 29.7182 20.6055C29.7182 20.9415 29.5855 21.2634 29.3469 21.502L22.3216 28.5286C22.083 28.7658 21.7611 28.9 21.4251 28.9C21.0877 28.9 20.7658 28.7658 20.5272 28.5286L8.03543 16.0354L2.40651 21.6644C2.04367 22.0272 1.49871 22.1359 1.02434 21.9397C0.551377 21.7434 0.242188 21.2804 0.242188 20.7679V1.26781C0.242188 0.567551 0.809739 0 1.51 0H21.0101C21.5225 0 21.9856 0.307777 22.1819 0.782148C22.3781 1.25652 22.2694 1.80148 21.9066 2.16432L16.8551 7.21581ZM105.387 114.542L92.8957 102.049C92.6571 101.812 92.523 101.489 92.523 101.153C92.523 100.817 92.6571 100.493 92.8957 100.256L99.9209 93.2295C100.158 92.9923 100.481 92.8582 100.817 92.8582C101.155 92.8582 101.477 92.9923 101.715 93.2295L114.207 105.723L119.835 100.094C120.197 99.7309 120.744 99.6222 121.217 99.8185C121.691 100.015 122 100.478 122 100.99V120.49C122 121.191 121.433 121.758 120.733 121.758H101.232C100.72 121.758 100.257 121.449 100.061 120.975C99.8644 120.502 99.9732 119.955 100.336 119.592L105.387 114.542ZM16.8551 114.542L21.9066 119.592C22.2694 119.955 22.3781 120.502 22.1819 120.975C21.9856 121.449 21.5225 121.758 21.0101 121.758H1.51C0.809739 121.758 0.242188 121.191 0.242188 120.49V100.99C0.242188 100.478 0.551377 100.015 1.02434 99.8185C1.49871 99.6222 2.04367 99.7309 2.40651 100.094L8.03543 105.723L20.5272 93.2295C20.7658 92.9923 21.0877 92.8582 21.4251 92.8582C21.7611 92.8582 22.083 92.9923 22.3216 93.2295L29.3469 100.256C29.5855 100.493 29.7182 100.817 29.7182 101.153C29.7182 101.489 29.5855 101.812 29.3469 102.049L16.8551 114.542Z" fill="#9A9A9A"/>
<path fill-rule="evenodd" clip-rule="evenodd" d="M40.8637 47.364L61.753 35.9593L82.6423 47.364L61.753 59.2812L40.8637 47.364ZM84.9845 50.1156V74.0079L63.529 85.7217V62.3561L84.9845 50.1156ZM59.9769 85.7217L38.5215 74.0079V50.1156L59.9769 62.3561V85.7217Z" fill="#00AFE1"/>
</svg>
