<svg width="144" height="158" viewBox="0 0 144 158" fill="none" xmlns="http://www.w3.org/2000/svg">
<path d="M100.385 46.4345H49.7505C45.7502 46.4345 42.5 49.6847 42.5 53.6849V104.32C42.5 108.32 45.7502 111.57 49.7505 111.57H100.385C104.386 111.57 107.636 108.32 107.636 104.32L107.643 53.6903C107.643 49.69 104.386 46.4345 100.385 46.4345ZM104.087 104.321C104.087 106.349 102.434 108.016 100.392 108.016L49.7503 108.023C47.7086 108.023 46.0556 106.37 46.0556 104.328V53.6935C46.0556 51.6517 47.7085 49.9988 49.7503 49.9988H100.385C102.427 49.9988 104.08 51.6517 104.08 53.6935L104.087 104.321Z" fill="#9A9A9A"/>
<path d="M143.375 59.3443H115.464V47.6837C115.464 42.6695 111.394 38.5997 106.38 38.5997H97.2957V26.1751C97.2957 25.307 97.9902 24.6125 98.8583 24.6125H110.074C110.984 28.4321 114.714 31.1893 118.943 30.481C122.249 29.9324 124.902 27.1405 125.291 23.8138C125.86 19.1052 122.2 15.084 117.596 15.084C113.936 15.084 110.873 17.6466 110.061 21.0567H98.8445C96.018 21.0567 93.7261 23.3486 93.7261 26.1751V38.5996H83.0378V11.515C83.0378 10.6469 83.7323 9.95235 84.6004 9.95235H96.2471C97.1569 13.772 100.873 16.5292 105.116 15.8209C108.422 15.2722 111.075 12.4804 111.477 9.15372C112.061 4.4451 108.387 0.423828 103.782 0.423828C100.122 0.423828 97.0598 2.98651 96.2471 6.39654H84.6004C81.7739 6.39654 79.482 8.68844 79.482 11.515V38.6067H69.1202L69.1132 17.1669C69.1132 16.8266 68.8493 16.5627 68.509 16.5627H66.1616C65.8213 16.5627 65.5574 16.8266 65.5574 17.1669V38.5925H56.0638V17.487C56.0638 14.6604 53.7718 12.3685 50.9453 12.3685H43.9587C43.0489 8.54887 39.3194 5.79169 35.0899 6.50001C31.7841 7.04866 29.1311 9.84052 28.7284 13.1672C28.145 17.8758 31.8189 21.8971 36.4234 21.8971C40.0834 21.8971 43.146 19.3344 43.9587 15.9244H50.9453C51.8134 15.9244 52.5079 16.6188 52.5079 17.487V38.5925H43.7434C38.7292 38.5925 34.6593 42.6623 34.6593 47.6766V59.3372H25.874C25.5337 59.3372 25.2698 59.6011 25.2698 59.9414V62.2887C25.2698 62.6291 25.5337 62.893 25.874 62.893H34.6593V82.5886H11.7279C10.8597 82.5886 10.1652 81.8941 10.1652 81.026V71.6573C13.9849 70.7475 16.7421 67.0181 16.0338 62.7886C15.4851 59.4827 12.6933 56.8297 9.36661 56.427C4.65799 55.8437 0.636719 59.5176 0.636719 64.122C0.636719 67.782 3.1994 70.8446 6.60943 71.6573V81.0122C6.60943 83.8387 8.90133 86.1306 11.7278 86.1306H34.6593V94.5061H2.74763C2.40732 94.5061 2.14343 94.77 2.14343 95.1103V97.4577C2.14343 97.798 2.40734 98.0619 2.74763 98.0619H34.6593V110.292C34.6593 115.306 38.7291 119.376 43.7434 119.376H45.9311V135.037C45.9311 135.891 45.2227 136.6 44.3685 136.6H35.7428C34.833 132.78 31.1174 130.023 26.874 130.731C23.5682 131.28 20.9152 134.072 20.5125 137.398C19.9291 142.107 23.603 146.128 28.2074 146.128C31.8675 146.128 34.9301 143.565 35.7428 140.155H44.3685C47.195 140.155 49.4869 137.863 49.4869 135.037V119.376H65.6269V146.468C65.6269 147.322 64.9324 148.03 64.0643 148.03H55.8345C54.9247 144.211 51.1953 141.454 46.9658 142.162C43.66 142.711 41.007 145.502 40.6181 148.829C40.0486 153.538 43.7087 157.559 48.3131 157.559C51.9731 157.559 55.0357 154.996 55.8484 151.586H64.0782C66.9047 151.586 69.1966 149.294 69.1966 146.468L69.2035 119.417H83.6421V137.071C83.6421 137.411 83.906 137.675 84.2463 137.675H86.5937C86.934 137.675 87.1979 137.411 87.1979 137.071V119.417H99.7683V133.196C99.7683 136.022 102.06 138.314 104.887 138.314H113.867C114.776 142.134 118.492 144.891 122.735 144.183C126.041 143.634 128.694 140.842 129.097 137.516C129.68 132.807 126.006 128.786 121.402 128.786C117.742 128.786 114.679 131.348 113.867 134.758H104.887C104.032 134.758 103.324 134.05 103.324 133.196V119.417H106.401C111.415 119.417 115.485 115.347 115.485 110.333V97.1236H132.625C133.479 97.1236 134.188 97.818 134.188 98.6862V108.374C130.368 109.284 127.611 113.014 128.319 117.243C128.888 120.549 131.66 123.202 134.986 123.591C139.695 124.16 143.716 120.479 143.716 115.896C143.716 112.236 141.153 109.173 137.743 108.36V98.6723C137.743 95.8458 135.451 93.5539 132.625 93.5539H115.485V77.643H134.507C134.847 77.643 135.111 77.3791 135.111 77.0388V74.6914C135.111 74.3511 134.847 74.0872 134.507 74.0872H115.485V62.9058H143.396C143.736 62.9058 144 62.6419 144 62.3016V59.9542C143.98 59.607 143.715 59.3443 143.375 59.3443ZM117.596 18.6266C119.908 18.6266 121.79 20.5087 121.79 22.8214C121.79 25.1341 119.908 27.0162 117.596 27.0162C115.283 27.0162 113.401 25.1341 113.401 22.8214C113.401 20.5157 115.29 18.6266 117.596 18.6266ZM103.782 3.97968C106.095 3.97968 107.977 5.86178 107.977 8.17448C107.977 10.4872 106.095 12.3693 103.782 12.3693C101.469 12.3693 99.5873 10.4872 99.5873 8.17448C99.5873 5.86178 101.469 3.97968 103.782 3.97968ZM36.4366 18.3418C34.1239 18.3418 32.2418 16.4597 32.2418 14.147C32.2418 11.8343 34.1239 9.95221 36.4366 9.95221C38.7493 9.95221 40.6314 11.8343 40.6314 14.147C40.6314 16.4597 38.7632 18.3418 36.4366 18.3418ZM4.20492 64.1443C4.20492 61.8316 6.08702 59.9495 8.39972 59.9495C10.7124 59.9495 12.5945 61.8316 12.5945 64.1443C12.5945 66.457 10.7124 68.3391 8.39972 68.3391C6.08702 68.3391 4.20492 66.4709 4.20492 64.1443ZM28.2209 142.602C25.9082 142.602 24.0261 140.72 24.0261 138.407C24.0261 136.094 25.9082 134.212 28.2209 134.212C30.5336 134.212 32.4157 136.094 32.4157 138.407C32.4157 140.72 30.5336 142.602 28.2209 142.602ZM48.3131 154.033C46.0004 154.033 44.1183 152.151 44.1183 149.838C44.1183 147.526 46.0004 145.643 48.3131 145.643C50.6258 145.643 52.5079 147.526 52.5079 149.838C52.5079 152.151 50.6396 154.033 48.3131 154.033ZM121.389 132.323C123.701 132.323 125.583 134.205 125.583 136.518C125.583 138.831 123.701 140.713 121.389 140.713C119.076 140.713 117.194 138.831 117.194 136.518C117.187 134.212 119.076 132.323 121.389 132.323ZM111.93 110.336C111.93 113.377 109.443 115.864 106.401 115.864H43.7444C40.6885 115.864 38.2161 113.378 38.2161 110.336V47.6786C38.2161 44.6227 40.7024 42.1503 43.7444 42.1503H106.38C109.436 42.1503 111.908 44.6366 111.908 47.6786V110.336H111.93ZM140.161 115.899C140.161 118.211 138.279 120.093 135.966 120.093C133.654 120.093 131.771 118.211 131.771 115.899C131.771 113.586 133.654 111.704 135.966 111.704C138.279 111.704 140.161 113.586 140.161 115.899Z" fill="#9A9A9A"/>
<path d="M96.1342 77.6031C96.1342 76.2349 95.7453 74.5126 94.6202 73.1236C93.9257 72.2694 92.8215 71.4013 91.1339 71.0401C90.995 69.8109 90.4394 67.6649 88.6059 66.4147V61.5601H97.3566C97.6621 61.5601 97.8913 61.3101 97.8913 61.0254V58.5391C97.8913 58.2335 97.6413 58.0044 97.3566 58.0044H85.05V65.5813C84.1611 65.6507 83.2167 65.8452 82.1887 66.2758C81.1956 65.1576 79.9455 64.3937 78.5634 63.9979V52.0874C78.5634 51.7818 78.3133 51.5526 78.0286 51.5526H75.5424C75.2368 51.5526 75.0076 51.8026 75.0076 52.0874V63.8591C73.3547 64.1785 71.9309 64.998 70.8267 66.1718C70.4169 65.9426 70.0072 65.7273 69.5974 65.5676V56.2127H56.2076C55.902 56.2127 55.6729 56.4627 55.6729 56.7475V59.2337C55.6729 59.5393 55.9229 59.7685 56.2076 59.7685H66.0416V64.8384C64.0345 64.8037 62.076 65.4217 60.3676 66.7066C58.409 68.1789 57.152 70.2971 56.9506 72.2903C53.5544 73.4848 50.3876 76.7905 50.4431 80.9853C50.5334 87.4372 54.1586 89.8054 56.8811 91.0138C58.4993 91.7222 60.2981 91.8681 62.5898 91.8681C63.1037 91.8681 63.6593 91.8681 64.2288 91.8472V98.2852H52.7627C52.4571 98.2852 52.2279 98.5352 52.2279 98.82V101.306C52.2279 101.612 52.478 101.841 52.7627 101.841H67.7846V91.8333C69.0972 91.8541 70.5903 91.8541 72.1391 91.8541V104.904C72.1391 105.209 72.3891 105.438 72.6738 105.438H75.1601C75.4656 105.438 75.6948 105.188 75.6948 104.904L75.7087 91.8054C76.4379 91.8054 77.1463 91.8054 77.8408 91.7846C79.0839 91.7846 80.2577 91.7637 81.2924 91.7637V100.341H95.5504C95.8559 100.341 96.0851 100.091 96.0851 99.806V97.3197C96.0851 97.0141 95.8351 96.785 95.5504 96.785H84.8482V91.7707C93.3836 91.7707 97.4532 90.5415 98.7173 87.7009C99.8216 85.2286 99.9605 82.7909 99.1063 80.8185C98.5576 79.485 97.5232 78.3809 96.1342 77.6031ZM95.4813 86.2773C95.2313 86.7426 93.7937 88.3609 83.7304 88.2359C82.397 88.215 80.2441 88.2359 77.848 88.2567C74.6672 88.2775 71.0002 88.2914 68.1391 88.2775C66.8056 88.2567 65.611 88.2775 64.5278 88.2984C64.4375 87.8539 64.5069 87.0344 65.0278 86.2566C65.4931 85.5274 66.3265 84.8538 67.7293 85.2427C68.4933 85.458 69.3128 85.0274 69.7018 84.3329C70.2712 83.3536 69.7365 82.1105 68.6531 81.791C65.5625 80.9368 63.2152 82.4647 62.0206 84.319C61.2011 85.583 60.8677 86.9859 60.9372 88.2846C59.8885 88.2291 59.0343 88.0902 58.3398 87.7846C56.2771 86.8609 54.0757 85.5067 53.9992 80.9578C53.9645 78.1103 56.5966 75.8047 59.0691 75.4296C59.0691 75.4296 60.6526 75.0754 60.6317 74.8601C60.5623 74.11 60.3678 72.9918 60.6317 72.0682C60.8609 71.2487 61.5415 70.3111 62.5346 69.561C63.4444 68.8665 65.8751 67.4983 69.0421 69.2554C68.9171 69.6652 68.8129 70.0749 68.7574 70.4986C68.4726 72.2765 68.8268 73.7905 69.5422 75.0129C69.1185 75.1518 68.674 75.2421 68.2782 75.2421C68.1532 75.2421 67.5698 75.1032 67.1045 74.5476C66.6253 73.9781 65.8752 73.6795 65.1669 73.8878C64.0279 74.2281 63.4584 75.5754 64.1391 76.5547C64.903 77.6936 65.8475 78.2423 66.6114 78.5132C67.1948 78.7077 67.7851 78.798 68.3546 78.798C69.8478 78.798 71.2506 78.2493 72.1953 77.7493C73.0634 78.3326 74.0078 78.798 74.8968 79.1383C75.8899 79.5272 76.9942 78.8883 77.2234 77.8396L77.2442 77.784C77.4248 76.9298 76.9247 76.0964 76.1052 75.7908C74.3967 75.1518 71.8757 73.7281 72.2994 71.0404C72.6536 68.7485 74.3065 67.6234 75.7302 67.3596C77.4873 67.0193 79.1472 67.7832 80.1196 69.4013C80.1196 69.4013 80.689 70.4153 80.8279 70.6306C80.9668 70.8251 82.4461 70.082 82.4461 70.082C84.3144 69.1236 85.7866 68.8388 86.5506 69.318C87.1201 69.6583 87.4048 70.457 87.5437 71.1167C85.4602 71.5404 84.3629 72.7002 83.8073 73.6239C82.9739 75.0268 82.8836 76.6449 83.0086 77.9784C79.6334 78.4437 78.1748 81.2704 77.6957 83.7011C77.4804 84.7498 78.3346 85.729 79.418 85.7082H79.5222C80.3556 85.6874 81.0362 85.0832 81.1959 84.2706C81.446 83.0413 82.1057 81.4787 83.8975 81.4441H83.9669C85.6893 81.4441 86.4046 82.6872 86.7033 83.7219C86.9186 84.4859 87.6478 84.9859 88.4465 84.9651C89.641 84.9304 90.4397 83.7567 90.0855 82.6177C89.5716 80.944 88.5021 79.2911 86.6893 78.4578C85.9046 76.0757 87.5575 74.5129 88.5368 74.3533C90.1341 74.0685 91.1341 74.5338 91.8078 75.2978C92.6759 76.277 92.662 77.784 92.5717 78.055C92.5717 78.055 92.5023 78.3189 92.3217 79.4579C92.2662 79.7634 93.7593 80.326 94.7038 80.9163C95.2732 81.2705 95.6483 81.7358 95.8775 82.2706C96.2942 83.2915 96.28 84.7286 95.4813 86.2773Z" fill="#9A9A9A"/>
<path d="M101.197 46.3488H50.562C46.5617 46.3488 43.3115 49.599 43.3115 53.5993V104.234C43.3115 108.234 46.5617 111.485 50.562 111.485H101.197C105.197 111.485 108.447 108.234 108.447 104.234L108.454 53.6046C108.454 49.6043 105.197 46.3488 101.197 46.3488ZM104.898 104.236C104.898 106.264 103.246 107.93 101.204 107.93L50.5618 107.937C48.5201 107.937 46.8672 106.284 46.8672 104.243V53.6078C46.8672 51.5661 48.5201 49.9132 50.5618 49.9132H101.197C103.238 49.9132 104.891 51.5661 104.891 53.6078L104.898 104.236Z" fill="#00AFE1"/>
<path d="M96.9447 77.5174C96.9447 76.1493 96.5558 74.4269 95.4307 73.038C94.7362 72.1838 93.632 71.3156 91.9444 70.9545C91.8055 69.7252 91.2499 67.5793 89.4164 66.329V61.4745H98.1671C98.4727 61.4745 98.7019 61.2245 98.7019 60.9397V58.4535C98.7019 58.1479 98.4519 57.9187 98.1671 57.9187H85.8606V65.4956C84.9716 65.5651 84.0272 65.7595 82.9992 66.1901C82.0061 65.072 80.756 64.308 79.3739 63.9123V52.0017C79.3739 51.6961 79.1239 51.4669 78.8391 51.4669H76.3529C76.0473 51.4669 75.8181 51.7169 75.8181 52.0017V63.7734C74.1652 64.0929 72.7415 64.9124 71.6372 66.0861C71.2275 65.8569 70.8177 65.6416 70.408 65.4819V56.1271H57.0182C56.7126 56.1271 56.4834 56.3771 56.4834 56.6618V59.1481C56.4834 59.4537 56.7334 59.6828 57.0182 59.6828H66.8521V64.7527C64.8451 64.718 62.8865 65.3361 61.1781 66.6209C59.2196 68.0933 57.9626 70.2114 57.7612 72.2046C54.365 73.3992 51.1982 76.7049 51.2536 80.8997C51.3439 87.3515 54.9691 89.7197 57.6916 90.9282C59.3098 91.6365 61.1086 91.7824 63.4003 91.7824C63.9142 91.7824 64.4698 91.7824 65.0393 91.7616V98.1995H53.5733C53.2677 98.1995 53.0385 98.4496 53.0385 98.7343V101.221C53.0385 101.526 53.2885 101.755 53.5733 101.755H68.5952V91.7476C69.9078 91.7684 71.4009 91.7684 72.9496 91.7684V104.818C72.9496 105.124 73.1996 105.353 73.4844 105.353H75.9706C76.2762 105.353 76.5054 105.103 76.5054 104.818L76.5193 91.7197C77.2485 91.7197 77.9569 91.7197 78.6513 91.6989C79.8945 91.6989 81.0682 91.6781 82.103 91.6781V100.255H96.3609C96.6665 100.255 96.8957 100.005 96.8957 99.7203V97.2341C96.8957 96.9285 96.6456 96.6993 96.3609 96.6993H85.6588V91.6851C94.1942 91.6851 98.2638 90.4558 99.5279 87.6153C100.632 85.1429 100.771 82.7052 99.9168 80.7328C99.3682 79.3994 98.3338 78.2953 96.9447 77.5174ZM96.2919 86.1917C96.0419 86.657 94.6043 88.2752 84.541 88.1502C83.2075 88.1294 81.0547 88.1502 78.6586 88.171C75.4777 88.1919 71.8108 88.2058 68.9496 88.1919C67.6162 88.171 66.4216 88.1919 65.3383 88.2127C65.248 87.7682 65.3175 86.9487 65.8384 86.171C66.3037 85.4417 67.1371 84.7681 68.5399 85.157C69.3038 85.3723 70.1233 84.9417 70.5123 84.2472C71.0818 83.268 70.547 82.0248 69.4636 81.7053C66.3731 80.8511 64.0257 82.379 62.8311 84.2333C62.0116 85.4973 61.6783 86.9002 61.7477 88.199C60.699 88.1434 59.8448 88.0045 59.1504 87.6989C57.0876 86.7753 54.8862 85.4211 54.8098 80.8721C54.775 78.0246 57.4071 75.719 59.8797 75.3439C59.8797 75.3439 61.4631 74.9897 61.4423 74.7744C61.3728 74.0243 61.1784 72.9062 61.4423 71.9826C61.6715 71.163 62.3521 70.2255 63.3452 69.4754C64.255 68.7809 66.6857 67.4126 69.8527 69.1698C69.7277 69.5795 69.6235 69.9893 69.5679 70.4129C69.2832 72.1908 69.6374 73.7049 70.3527 74.9272C69.9291 75.0661 69.4846 75.1564 69.0887 75.1564C68.9637 75.1564 68.3803 75.0175 67.915 74.4619C67.4358 73.8924 66.6858 73.5938 65.9775 73.8021C64.8385 74.1425 64.269 75.4898 64.9496 76.469C65.7136 77.608 66.6581 78.1566 67.422 78.4275C68.0053 78.622 68.5957 78.7123 69.1652 78.7123C70.6583 78.7123 72.0612 78.1637 73.0058 77.6636C73.8739 78.247 74.8184 78.7123 75.7073 79.0526C76.7005 79.4415 77.8047 78.8026 78.0339 77.7539L78.0547 77.6983C78.2353 76.8441 77.7353 76.0107 76.9158 75.7051C75.2073 75.0662 72.6863 73.6424 73.11 70.9547C73.4642 68.6628 75.117 67.5378 76.5408 67.2739C78.2979 66.9336 79.9578 67.6976 80.9301 69.3157C80.9301 69.3157 81.4996 70.3296 81.6385 70.5449C81.7774 70.7394 83.2567 69.9963 83.2567 69.9963C85.1249 69.0379 86.5972 68.7531 87.3612 69.2323C87.9306 69.5727 88.2154 70.3713 88.3543 71.0311C86.2707 71.4547 85.1734 72.6145 84.6178 73.5383C83.7844 74.9411 83.6941 76.5593 83.8191 77.8927C80.444 78.358 78.9854 81.1847 78.5062 83.6154C78.2909 84.6641 79.1452 85.6433 80.2286 85.6225H80.3327C81.1661 85.6017 81.8467 84.9975 82.0065 84.1849C82.2565 82.9557 82.9163 81.3931 84.708 81.3584H84.7775C86.4998 81.3584 87.2152 82.6016 87.5138 83.6363C87.7291 84.4002 88.4584 84.9003 89.257 84.8794C90.4516 84.8447 91.2503 83.671 90.8961 82.532C90.3821 80.8583 89.3126 79.2054 87.4999 78.3721C86.7151 75.9901 88.368 74.4273 89.3473 74.2676C90.9447 73.9829 91.9447 74.4482 92.6183 75.2121C93.4864 76.1914 93.4725 77.6984 93.3823 77.9693C93.3823 77.9693 93.3128 78.2332 93.1323 79.3722C93.0767 79.6778 94.5699 80.2403 95.5143 80.8306C96.0838 81.1848 96.4588 81.6501 96.688 82.1849C97.1047 83.2058 97.0906 84.6429 96.2919 86.1917Z" fill="#00AFE1"/>
</svg>
