<svg width="469" height="596" viewBox="0 0 469 596" fill="none" xmlns="http://www.w3.org/2000/svg">
<g opacity="0.2">
<path d="M308.894 0H280.398V595.924H308.894V0Z" fill="#00AFE1"/>
<path d="M589.296 283.552H0V312.368H589.296V283.552Z" fill="#00AFE1"/>
<path d="M96.3213 77.0597L76.1719 97.4358L492.863 518.814L513.012 498.438L96.3213 77.0597Z" fill="#00AFE1"/>
<path d="M492.866 77.0605L76.1748 498.439L96.3243 518.815L513.015 97.4367L492.866 77.0605Z" fill="#00AFE1"/>
<path d="M27.232 172.294L16.4805 198.98L562.227 423.823L572.979 397.136L27.232 172.294Z" fill="#00AFE1"/>
<path d="M392.716 16.7129L170.375 568.599L196.765 579.471L419.106 27.5853L392.716 16.7129Z" fill="#00AFE1"/>
<path d="M562.877 173.293L16.1875 395.811L26.8279 422.544L573.518 200.026L562.877 173.293Z" fill="#00AFE1"/>
<path d="M197.687 16.3783L171.251 27.1355L391.235 579.974L417.671 569.217L197.687 16.3783Z" fill="#00AFE1"/>
</g>
</svg>
