<svg width="124" height="131" viewBox="0 0 124 131" fill="none" xmlns="http://www.w3.org/2000/svg">
<path d="M123.511 33.6114C123.331 33.2293 122.996 32.9509 122.599 32.8472L100.574 27.1597C100.055 27.0233 99.5035 27.2143 99.1641 27.64C98.8248 28.0658 98.7559 28.6607 98.9892 29.1574L101.773 35.1233L77.1505 47.2843L58.3713 31.461C58.3448 31.4392 58.3183 31.4283 58.2918 31.4064C58.2494 31.3737 58.207 31.3464 58.1646 31.3191C58.1274 31.2973 58.085 31.2809 58.0479 31.2645C58.0055 31.2481 57.9631 31.2263 57.9207 31.2099C57.8783 31.1936 57.8358 31.1881 57.7881 31.1772C57.7457 31.1663 57.7033 31.1554 57.6556 31.1499C57.6132 31.1444 57.5708 31.1444 57.5283 31.1444C57.4806 31.1444 57.4382 31.139 57.3905 31.1444C57.3481 31.1499 57.311 31.1554 57.2686 31.1608C57.2208 31.1663 57.1784 31.1772 57.1307 31.1881C57.0883 31.199 57.0459 31.2154 57.0088 31.2318C56.9664 31.2481 56.9239 31.2645 56.8868 31.2864C56.8391 31.3082 56.7967 31.3409 56.7543 31.3682C56.7278 31.3846 56.7013 31.401 56.6748 31.4174L0.915514 73.9699L0.910211 73.9754C0.851891 74.0191 0.804175 74.0682 0.751153 74.1228C0.735247 74.1392 0.719341 74.1501 0.703437 74.1665C0.661022 74.2156 0.629211 74.2647 0.597399 74.3193C0.581494 74.3466 0.560287 74.3684 0.544381 74.3957C0.523174 74.4339 0.507268 74.4776 0.491364 74.5158C0.470155 74.5594 0.448949 74.5977 0.433044 74.6468C0.411836 74.7068 0.401232 74.7723 0.385326 74.8378C0.380024 74.8651 0.369422 74.887 0.369422 74.9142C0.358817 74.9743 0.358817 75.0343 0.358817 75.0944C0.358817 75.1271 0.353516 75.1544 0.353516 75.1872C0.353516 75.2199 0.36412 75.2581 0.369422 75.2909C0.374723 75.3455 0.380024 75.4055 0.39593 75.4601C0.401232 75.4874 0.411836 75.5092 0.422439 75.531C0.443647 75.5965 0.459552 75.662 0.491364 75.7275C0.491364 75.733 0.491364 75.733 0.496666 75.733C0.533779 75.8094 0.576193 75.8803 0.618607 75.9458C0.623909 75.9513 0.623909 75.9568 0.629211 75.9677C0.645116 75.9895 0.666324 76.0113 0.682228 76.0332C0.698134 76.0496 0.708738 76.0714 0.724643 76.0878C0.767057 76.1314 0.809472 76.1751 0.851886 76.2133C0.899604 76.2515 0.94732 76.2897 1.00034 76.3225C1.01095 76.3279 1.02685 76.3388 1.03746 76.3443C1.07457 76.3661 1.11698 76.3934 1.1594 76.4098C1.1753 76.4153 1.19121 76.4262 1.20711 76.4316C1.24423 76.448 1.28664 76.4644 1.32376 76.4753C1.33966 76.4808 1.36087 76.4862 1.37677 76.4917C1.41919 76.5026 1.4563 76.5135 1.49872 76.519C1.51462 76.5244 1.53583 76.5244 1.55173 76.5299C1.61005 76.5353 1.66837 76.5408 1.7267 76.5408C1.79032 76.5408 1.85394 76.5353 1.91756 76.5244C1.93346 76.519 1.95467 76.519 1.97588 76.5135C2.02359 76.5026 2.07131 76.4917 2.11903 76.4808C2.13494 76.4753 2.15084 76.4698 2.16675 76.4644C2.21976 76.448 2.27278 76.4262 2.3258 76.3989L7.05507 74.0627C7.03916 74.8542 7.19822 75.6456 7.54284 76.3769C8.12074 77.616 9.13342 78.5494 10.3953 79.0024C11.6571 79.4609 13.0144 79.3845 14.2179 78.7895L22.2449 74.8268L19.1115 86.9279L12.4206 107.724L2.50086 117.948C0.406601 120.104 0.411895 123.613 2.50617 125.764C3.51881 126.801 4.8655 127.374 6.29701 127.374H6.30232C7.73912 127.374 9.0858 126.801 10.0985 125.758L20.4582 115.077C21.3171 114.192 21.7677 113.226 22.2079 112.287L26.2744 103.674L31.1627 111.37L29.6199 124.814C29.27 127.838 31.3801 130.594 34.3226 130.955C34.5452 130.987 34.7573 130.998 34.9694 130.998C37.6521 130.998 39.9743 128.93 40.2977 126.119L41.952 111.736C42.1587 109.957 41.8512 108.335 41.0135 106.764L34.1477 93.8929L39.4494 73.3593C40.5999 68.8999 38.0179 64.3149 33.6863 63.1305L30.7916 62.339L39.0094 58.2782C38.9988 58.3218 38.9829 58.36 38.9723 58.4037C37.8059 62.9123 40.425 67.5627 44.8043 68.7581C45.5095 68.9492 46.22 69.0419 46.9145 69.0419C50.5515 69.0419 53.8863 66.5365 54.8619 62.7486C55.9276 58.6276 53.8334 54.3973 50.1274 52.7817L55.5353 50.1126L68.5937 66.7938L63.1223 69.4957C60.6358 70.7238 59.5806 73.8076 60.7735 76.3677C61.3514 77.6067 62.3641 78.5401 63.626 78.9931C64.8878 79.4516 66.2451 79.3752 67.4486 78.7802L75.4756 74.8176L72.3422 86.9186L65.6513 107.715L55.7315 117.938C53.6426 120.094 53.6426 123.604 55.7368 125.755C56.7495 126.792 58.0962 127.365 59.5277 127.365H59.533C60.9698 127.365 62.3165 126.792 63.3291 125.749L73.6889 115.067C74.5478 114.183 74.9984 113.217 75.4385 112.278L79.505 103.665L84.3934 111.361L82.8453 124.805C82.4954 127.829 84.6055 130.585 87.5479 130.945C87.7706 130.989 87.988 131 88.1947 131C89.393 131 90.5488 130.591 91.5084 129.81C92.6377 128.893 93.3482 127.583 93.5178 126.126L95.1721 111.743C95.3788 109.964 95.0713 108.343 94.2336 106.771L87.3678 93.9001L92.6695 73.3665C93.82 68.9125 91.238 64.322 86.9064 63.1377L84.0116 62.3462L92.2295 58.2853C92.2189 58.329 92.203 58.3672 92.1924 58.4108C91.026 62.9194 93.6451 67.5699 98.0244 68.7653C98.7296 68.9563 99.44 69.0491 100.135 69.0491C103.772 69.0491 107.106 66.5437 108.082 62.7557C109.148 58.6347 107.053 54.4045 103.347 52.7889L108.75 50.1197L111.534 56.0856C111.762 56.5768 112.249 56.8934 112.779 56.8934H112.79C113.326 56.888 113.813 56.5659 114.036 56.0638L123.51 34.8203C123.696 34.4382 123.691 33.9961 123.51 33.614L123.511 33.6114ZM19.8441 110.825L19.7327 111.054C19.3457 111.873 19.0435 112.522 18.5133 113.068L8.15356 123.75C7.14092 124.792 5.48681 124.798 4.47415 123.755C3.46151 122.713 3.4562 121.01 4.46885 119.967L14.6166 109.504C14.7703 109.345 14.8817 109.154 14.9506 108.947L19.8972 93.5875C20.0032 93.7785 20.1145 93.9696 20.2312 94.1552L24.5204 100.912L19.8441 110.825ZM25.1936 65.1112C26.3971 64.5162 27.5582 64.4071 28.8466 64.7564L32.9767 65.8863C34.3499 66.2629 35.5057 67.1744 36.2267 68.4516C36.9477 69.7288 37.1439 71.2135 36.7781 72.6327L31.3331 93.7182C31.243 94.073 31.2854 94.4496 31.4551 94.7717L38.586 108.139C39.1427 109.182 39.3389 110.219 39.2063 111.403L37.5521 125.786C37.4726 126.49 37.1226 127.128 36.5766 127.57C36.0305 128.018 35.3465 128.215 34.6625 128.133C33.2363 127.958 32.2131 126.621 32.3827 125.158L33.9892 111.196C34.0263 110.863 33.9521 110.53 33.7718 110.251L27.2878 100.039C27.2771 100.028 27.2718 100.012 27.2612 100.001L22.5532 92.5883C21.5988 91.0872 21.3443 89.4497 21.7897 87.714C21.7897 87.7085 21.795 87.6976 21.795 87.6921L25.5434 73.2061L27.6906 72.1472C28.3798 71.8088 28.6714 70.9573 28.3374 70.2477C28.0087 69.5381 27.1816 69.2379 26.4923 69.5818L23.7831 70.9191C23.7778 70.9245 23.7672 70.9245 23.7619 70.93L13.0363 76.2246C12.5008 76.492 11.8964 76.5193 11.3292 76.3174C10.7619 76.1099 10.3112 75.6951 10.0514 75.1438C9.79162 74.5926 9.76511 73.9703 9.96128 73.3863C10.1628 72.8022 10.5657 72.3383 11.1012 72.0708L25.1882 65.1115L25.1936 65.1112ZM46.9262 54.9643C47.3874 54.9643 47.8593 55.0243 48.3258 55.1553C49.7361 55.5428 50.913 56.4708 51.6447 57.7644C52.3764 59.0635 52.5725 60.5754 52.1961 62.0273C51.422 65.0239 48.4266 66.8088 45.521 66.0119C42.6104 65.215 40.8766 62.1312 41.6507 59.1399C42.043 57.628 42.9973 56.4326 44.222 55.7121L44.9325 55.3573C45.5581 55.1063 46.2316 54.9643 46.9262 54.9643ZM73.0698 110.825L72.9585 111.054C72.5715 111.873 72.2693 112.522 71.7391 113.068L61.3793 123.75C60.8916 124.252 60.2394 124.531 59.5396 124.531C58.845 124.531 58.1876 124.252 57.6998 123.75C56.6871 122.708 56.6818 121.005 57.6945 119.962L67.8422 109.499C67.996 109.34 68.1073 109.149 68.1762 108.942L73.1228 93.5825C73.2288 93.7735 73.3402 93.9645 73.4568 94.1501L77.746 100.907L73.0698 110.825ZM78.4194 65.1116C79.6229 64.5167 80.784 64.4075 82.0723 64.7568L86.2025 65.8867C89.0549 66.6672 90.7621 69.6966 90.0039 72.6331L84.559 93.7187C84.4688 94.0734 84.5113 94.4501 84.6809 94.7721L91.8119 108.139C92.3686 109.182 92.5647 110.219 92.4322 111.403L90.7779 125.786C90.6984 126.49 90.3485 127.129 89.8024 127.571C89.2563 128.018 88.5724 128.215 87.8884 128.133C86.4622 127.958 85.4389 126.621 85.6086 125.158L87.215 111.196C87.2522 110.863 87.1779 110.53 86.9977 110.252L80.5136 100.045C80.503 100.028 80.4924 100.012 80.4818 99.9956L75.7791 92.5887C74.8248 91.0877 74.5703 89.4501 75.0157 87.7144C75.0157 87.7089 75.021 87.698 75.021 87.6925L78.7693 73.2065L80.9165 72.1476C81.6058 71.8092 81.8974 70.9577 81.5633 70.2481C81.2346 69.5385 80.4075 69.2383 79.7183 69.5822L77.009 70.9195C76.9984 70.9249 76.9931 70.9249 76.9825 70.9304L66.2623 76.225C65.7268 76.4924 65.1224 76.5197 64.5551 76.3178C63.9878 76.1104 63.5372 75.6955 63.2774 75.1442C63.0176 74.593 62.9911 73.9707 63.1872 73.3867C63.3887 72.8027 63.7916 72.3387 64.3271 72.0712L71.3732 68.5888L78.4194 65.1116ZM100.152 54.9647C100.613 54.9647 101.085 55.0247 101.552 55.1557C104.462 55.9526 106.196 59.0365 105.422 62.0277C104.648 65.0243 101.652 66.8092 98.7469 66.0124C95.8362 65.2154 94.1025 62.1316 94.8765 59.1403C95.2688 57.6284 96.2232 56.433 97.4479 55.7126L98.1583 55.3578C98.7892 55.1067 99.4626 54.9647 100.152 54.9647ZM112.765 52.1209L110.66 47.6068C110.331 46.8972 109.504 46.597 108.815 46.9409L97.0875 52.7321C96.7694 52.8631 96.4619 53.0214 96.1597 53.1906L71.167 65.5372L57.0107 47.4545C56.9895 47.4272 56.963 47.4053 56.9417 47.3835C56.9046 47.3453 56.8728 47.3016 56.8304 47.2689C56.7986 47.2416 56.7615 47.2143 56.7244 47.1925C56.6873 47.1652 56.6502 47.1379 56.613 47.116C56.5759 47.0942 56.5335 47.0778 56.4911 47.056C56.454 47.0396 56.4116 47.0178 56.3692 47.0069C56.3267 46.9905 56.2843 46.985 56.2419 46.9741C56.1995 46.9632 56.1518 46.9523 56.1094 46.9468C56.0669 46.9414 56.0245 46.9414 55.9821 46.9414C55.9344 46.9414 55.8867 46.9359 55.839 46.9414C55.7966 46.9468 55.7488 46.9523 55.7064 46.9632C55.664 46.9687 55.6163 46.9741 55.5739 46.9905C55.5209 47.0014 55.4731 47.0233 55.4254 47.0451C55.3936 47.056 55.3618 47.0669 55.33 47.0778L43.8569 52.7435C43.5388 52.8745 43.2313 53.0328 42.9291 53.202L14.1876 67.3876L57.4559 34.3648L76.0708 50.0525L76.0814 50.0634C76.0867 50.0688 76.0867 50.0688 76.092 50.0688C76.145 50.1125 76.2034 50.1507 76.2617 50.1889C76.2829 50.1998 76.3094 50.2162 76.3306 50.2271C76.373 50.249 76.4154 50.2708 76.4578 50.2872C76.4843 50.2981 76.5109 50.309 76.5374 50.3145C76.5851 50.3308 76.6275 50.3418 76.6752 50.3527C76.7017 50.3581 76.7229 50.3636 76.7441 50.3691C76.8131 50.38 76.8873 50.3854 76.9562 50.3854C77.0516 50.3854 77.1471 50.3745 77.2425 50.3527H77.2531C77.2796 50.3472 77.3008 50.3363 77.3273 50.3308C77.3538 50.3254 77.3804 50.3199 77.4016 50.309C77.4175 50.3036 77.4281 50.2981 77.444 50.2926C77.4811 50.2817 77.5129 50.2653 77.55 50.249H77.5553L104.219 37.0781C104.908 36.7397 105.2 35.8882 104.866 35.1786L102.761 30.6646L120.31 35.1949L112.765 52.1209ZM62.196 25.4083H64.2583C64.5075 26.1834 64.8097 26.9367 65.1702 27.668L63.7123 29.169C62.8799 30.026 62.8799 31.4179 63.7123 32.2749L67.8954 36.5814C68.7278 37.4384 70.0798 37.4384 70.9122 36.5814L72.3701 35.0804C73.0806 35.4461 73.8122 35.7627 74.5651 36.0192V38.1425C74.5651 39.3542 75.5247 40.3367 76.6964 40.3367H82.608C83.785 40.3367 84.7393 39.3487 84.7393 38.1425V36.0192C85.4922 35.7627 86.2239 35.4516 86.9343 35.0804L88.3923 36.5814C89.2247 37.4384 90.5767 37.4384 91.4091 36.5814L95.5922 32.2749C96.4245 31.4179 96.4245 30.026 95.5922 29.169L94.1342 27.668C94.4894 26.9366 94.7969 26.1834 95.0461 25.4083H97.1085C98.2855 25.4083 99.2398 24.4203 99.2398 23.2141V17.128C99.2398 15.9163 98.2802 14.9338 97.1085 14.9338H95.0461C94.7969 14.1588 94.4947 13.4054 94.1342 12.6741L95.5922 11.1731C96.4245 10.3161 96.4245 8.92424 95.5922 8.06726L91.4144 3.75527C91.0114 3.34043 90.4759 3.11119 89.9033 3.11119C89.336 3.11119 88.7952 3.34043 88.3923 3.75527L86.9343 5.25627C86.2238 4.89057 85.4922 4.57399 84.7393 4.31744L84.7446 2.19421C84.7446 0.987933 83.7903 0 82.6133 0H76.7017C75.5247 0 74.5704 0.987947 74.5704 2.19421V4.31744C73.8176 4.57397 73.0858 4.8851 72.3754 5.25627L70.9175 3.75527C70.0851 2.89832 68.7331 2.89832 67.9007 3.75527L63.7176 8.06181C62.8852 8.91876 62.8852 10.3107 63.7176 11.1676L65.1756 12.6686C64.8203 13.4001 64.5128 14.1533 64.2636 14.9284H62.2013C61.0243 14.9284 60.0699 15.9163 60.0699 17.1226V23.2086C60.0646 24.4204 61.019 25.4083 62.196 25.4083ZM62.8322 17.7777H65.2975C65.9284 17.7777 66.4798 17.3355 66.6389 16.7078C66.9517 15.4579 67.4342 14.2571 68.0757 13.1381C68.3991 12.5814 68.309 11.8663 67.8636 11.4078L66.1192 9.61197L69.4064 6.2278L71.1508 8.02364C71.5961 8.48213 72.2907 8.57492 72.8315 8.24197C73.9184 7.58151 75.0848 7.08481 76.2989 6.76277C76.9086 6.59901 77.338 6.03135 77.338 5.38182L77.3274 2.84918H81.9772V5.38727C81.9772 6.0368 82.4066 6.60446 83.0163 6.76821C84.2304 7.09026 85.3968 7.58696 86.4837 8.24742C87.0245 8.58037 87.719 8.48759 88.1644 8.02909L89.9088 6.23325L93.1959 9.61742L91.4516 11.4133C91.0062 11.8717 90.9161 12.5868 91.2395 13.1436C91.8811 14.2625 92.3635 15.4634 92.6763 16.7133C92.8354 17.341 93.3868 17.7831 94.0177 17.7831H96.483V22.57L94.0124 22.5591C93.3815 22.5591 92.8301 23.0013 92.671 23.6289C92.3582 24.8789 91.8757 26.0797 91.2342 27.1987C90.9108 27.7554 91.0009 28.4705 91.4463 28.929L93.1907 30.7248L89.9035 34.109L88.1591 32.3132C87.7138 31.8547 87.0192 31.7619 86.4784 32.0948C85.3916 32.7553 84.2251 33.252 83.011 33.574C82.4013 33.7378 81.9719 34.3054 81.9719 34.955V37.4931L77.3327 37.4821V34.9441C77.3327 34.2945 76.9033 33.7269 76.2936 33.5631C75.0795 33.2411 73.9131 32.7444 72.8262 32.0839C72.2854 31.751 71.5908 31.8437 71.1455 32.3022L69.4011 34.0981L66.1139 30.7139L67.8583 28.9181C68.3036 28.4596 68.3938 27.7445 68.0704 27.1878C67.4288 26.0688 66.9464 24.8679 66.6336 23.618C66.4745 22.9903 65.9231 22.5482 65.2922 22.5482H62.8269L62.8322 17.7777ZM79.6555 32.1114C86.0547 32.1114 91.2559 26.7514 91.2559 20.1686C91.2559 13.5805 86.0496 8.22586 79.6555 8.22586C73.2563 8.22586 68.0551 13.5858 68.0551 20.1686C68.0551 26.7567 73.2561 32.1114 79.6555 32.1114ZM79.6555 11.0691C84.5278 11.0691 88.4883 15.152 88.4883 20.1626C88.4883 25.1787 84.5225 29.2561 79.6555 29.2561C74.7832 29.2561 70.8227 25.1733 70.8227 20.1626C70.8174 15.152 74.7832 11.0691 79.6555 11.0691ZM74.7354 22.4605C74.1734 21.9256 74.1363 21.025 74.6559 20.4464C75.1755 19.8678 76.0502 19.8296 76.6123 20.3645L78.4573 22.1112L82.4602 15.2556C82.8525 14.5843 83.7008 14.3659 84.3582 14.7699C85.0103 15.1738 85.2224 16.0471 84.83 16.7239L79.9523 25.0751C79.7402 25.4408 79.3744 25.6919 78.9662 25.7519C78.9025 25.7628 78.8336 25.7683 78.77 25.7683C78.4254 25.7683 78.0914 25.6373 77.8316 25.3917L74.7354 22.4605Z" fill="#9A9A9A"/>
<path d="M61.9249 25.4083H63.9872C64.2364 26.1834 64.5386 26.9367 64.8992 27.668L63.4412 29.169C62.6088 30.026 62.6088 31.4179 63.4412 32.2749L67.6243 36.5814C68.4567 37.4383 69.8087 37.4383 70.6411 36.5814L72.099 35.0804C72.8095 35.4461 73.5411 35.7627 74.294 36.0192V38.1425C74.294 39.3542 75.2536 40.3367 76.4253 40.3367H82.3369C83.5139 40.3367 84.4682 39.3487 84.4682 38.1425V36.0192C85.2211 35.7627 85.9528 35.4516 86.6632 35.0804L88.1212 36.5814C88.9536 37.4383 90.3056 37.4383 91.138 36.5814L95.3211 32.2749C96.1535 31.4179 96.1535 30.026 95.3211 29.169L93.8631 27.668C94.2183 26.9366 94.5258 26.1834 94.775 25.4083H96.8374C98.0144 25.4083 98.9687 24.4203 98.9687 23.2141V17.128C98.9687 15.9163 98.0091 14.9338 96.8374 14.9338H94.775C94.5258 14.1588 94.2236 13.4054 93.8631 12.6741L95.3211 11.1731C96.1535 10.3161 96.1535 8.92424 95.3211 8.06726L91.1433 3.75527C90.7403 3.34043 90.2048 3.11119 89.6322 3.11119C89.0649 3.11119 88.5241 3.34043 88.1212 3.75527L86.6632 5.25627C85.9527 4.89056 85.2211 4.57399 84.4682 4.31744L84.4735 2.19421C84.4735 0.987933 83.5192 0 82.3422 0H76.4306C75.2536 0 74.2993 0.987947 74.2993 2.19421V4.31744C73.5465 4.57397 72.8147 4.8851 72.1043 5.25627L70.6464 3.75527C69.814 2.89832 68.462 2.89832 67.6296 3.75527L63.4465 8.06181C62.6141 8.91876 62.6141 10.3107 63.4465 11.1676L64.9045 12.6686C64.5492 13.4001 64.2417 14.1533 63.9925 14.9284H61.9302C60.7532 14.9284 59.7989 15.9163 59.7989 17.1226V23.2086C59.7935 24.4204 60.7479 25.4083 61.9249 25.4083ZM62.5611 17.7777H65.0264C65.6573 17.7777 66.2087 17.3355 66.3678 16.7078C66.6806 15.4579 67.1631 14.2571 67.8046 13.1381C68.128 12.5814 68.0379 11.8663 67.5925 11.4078L65.8482 9.61197L69.1353 6.2278L70.8797 8.02364C71.325 8.48213 72.0196 8.57492 72.5604 8.24197C73.6473 7.58151 74.8137 7.08481 76.0278 6.76277C76.6375 6.59901 77.0669 6.03135 77.0669 5.38182L77.0563 2.84918H81.7061V5.38727C81.7061 6.0368 82.1355 6.60446 82.7452 6.76821C83.9593 7.09025 85.1257 7.58696 86.2126 8.24742C86.7534 8.58037 87.448 8.48759 87.8933 8.02909L89.6377 6.23325L92.9249 9.61742L91.1805 11.4133C90.7352 11.8717 90.645 12.5868 90.9684 13.1436C91.6099 14.2625 92.0924 15.4634 92.4052 16.7133C92.5643 17.341 93.1157 17.7831 93.7466 17.7831H96.2119V22.57L93.7413 22.5591C93.1104 22.5591 92.559 23.0013 92.3999 23.6289C92.0871 24.8789 91.6047 26.0797 90.9631 27.1987C90.6397 27.7554 90.7298 28.4705 91.1752 28.929L92.9196 30.7248L89.6324 34.109L87.888 32.3132C87.4427 31.8547 86.7482 31.7619 86.2073 32.0948C85.1205 32.7553 83.954 33.252 82.7399 33.574C82.1302 33.7378 81.7008 34.3054 81.7008 34.955V37.4931L77.0616 37.4821V34.9441C77.0616 34.2945 76.6322 33.7269 76.0225 33.5631C74.8084 33.2411 73.642 32.7444 72.5551 32.0839C72.0143 31.751 71.3197 31.8437 70.8744 32.3022L69.13 34.0981L65.8428 30.7139L67.5872 28.9181C68.0326 28.4596 68.1227 27.7445 67.7993 27.1878C67.1578 26.0688 66.6753 24.8679 66.3625 23.618C66.2034 22.9903 65.652 22.5482 65.0211 22.5482H62.5558L62.5611 17.7777ZM79.3844 32.1114C85.7837 32.1114 90.9848 26.7514 90.9848 20.1686C90.9848 13.5805 85.7785 8.22586 79.3844 8.22586C72.9852 8.22586 67.784 13.5858 67.784 20.1686C67.784 26.7567 72.985 32.1114 79.3844 32.1114ZM79.3844 11.0691C84.2567 11.0691 88.2172 15.152 88.2172 20.1626C88.2172 25.1787 84.2514 29.2561 79.3844 29.2561C74.5121 29.2561 70.5516 25.1733 70.5516 20.1626C70.5463 15.152 74.5121 11.0691 79.3844 11.0691ZM74.4643 22.4605C73.9023 21.9256 73.8652 21.025 74.3848 20.4464C74.9044 19.8678 75.7791 19.8296 76.3412 20.3645L78.1862 22.1112L82.1891 15.2556C82.5814 14.5843 83.4297 14.3659 84.0871 14.7699C84.7392 15.1738 84.9513 16.0471 84.5589 16.7239L79.6812 25.0751C79.4691 25.4408 79.1033 25.6919 78.6951 25.7519C78.6314 25.7628 78.5625 25.7683 78.4989 25.7683C78.1543 25.7683 77.8203 25.6373 77.5605 25.3917L74.4643 22.4605Z" fill="#00AFE1"/>
</svg>
