<svg width="132" height="132" viewBox="0 0 132 132" fill="none" xmlns="http://www.w3.org/2000/svg">
<path fill-rule="evenodd" clip-rule="evenodd" d="M129.582 88.6148C130.476 88.2481 131.501 88.6721 131.868 89.5659C132.235 90.4598 131.811 91.4854 130.917 91.8521L122.913 95.1409C122.019 95.5076 120.993 95.0836 120.627 94.1898L117.338 86.1855C116.971 85.2917 117.395 84.2661 118.289 83.8994C119.183 83.5327 120.208 83.9567 120.575 84.8505L122.323 89.1076C123.589 86.025 124.609 82.8107 125.359 79.4933C126.339 75.1674 126.855 70.6525 126.855 66.0001C126.855 57.377 125.067 49.1834 121.853 41.7688C118.507 34.0625 113.608 27.187 107.546 21.5199C106.835 20.861 106.795 19.7495 107.454 19.0447C108.113 18.3343 109.225 18.2942 109.929 18.9531C116.329 24.9347 121.515 32.2172 125.061 40.3813C128.475 48.2423 130.366 56.906 130.366 65.9986C130.366 70.8802 129.816 75.6587 128.774 80.2597C127.994 83.6916 126.946 87.0264 125.639 90.2292L129.576 88.6134L129.582 88.6148ZM43.3852 129.582C43.7519 130.476 43.3279 131.501 42.434 131.868C41.5402 132.235 40.5146 131.811 40.1479 130.917L36.8591 122.913C36.4924 122.019 36.9164 120.993 37.8102 120.627L45.8145 117.338C46.7083 116.971 47.7339 117.395 48.1006 118.289C48.4673 119.183 48.0433 120.208 47.1495 120.575L42.8924 122.323C45.975 123.589 49.1893 124.609 52.5067 125.359C56.8326 126.339 61.3475 126.855 65.9999 126.855C74.623 126.855 82.8166 125.067 90.2312 121.853C97.9375 118.507 104.813 113.608 110.48 107.546C111.139 106.835 112.25 106.795 112.955 107.454C113.666 108.113 113.706 109.225 113.047 109.929C107.065 116.329 99.7828 121.515 91.6187 125.061C83.7577 128.475 75.094 130.366 66.0014 130.366C61.1198 130.366 56.3413 129.816 51.7403 128.774C48.3084 127.994 44.9736 126.946 41.7708 125.639L43.3866 129.576L43.3852 129.582ZM2.41798 43.3852C1.52416 43.7519 0.498554 43.3279 0.131859 42.434C-0.234836 41.5402 0.189154 40.5146 1.08298 40.1479L9.0872 36.8591C9.98103 36.4924 11.0066 36.9164 11.3733 37.8102L14.6621 45.8145C15.0288 46.7083 14.6048 47.7339 13.711 48.1006C12.8172 48.4673 11.7916 48.0433 11.4249 47.1495L9.67737 42.8924C8.41113 45.975 7.39125 49.1893 6.6407 52.5067C5.66093 56.8326 5.14532 61.3475 5.14532 65.9999C5.14532 74.623 6.93303 82.8166 10.1473 90.2312C13.4934 97.9375 18.3923 104.813 24.4542 110.48C25.1646 111.139 25.2047 112.25 24.5458 112.955C23.8869 113.666 22.7754 113.706 22.0706 113.047C15.6706 107.065 10.4854 99.7828 6.93934 91.6187C3.52452 83.7577 1.6337 75.094 1.6337 66.0014C1.6337 61.1198 2.18374 56.3413 3.22647 51.7403C4.0057 48.3084 5.05423 44.9736 6.36054 41.7708L2.42429 43.3866L2.41798 43.3852ZM88.6148 2.41798C88.2481 1.52416 88.6721 0.498554 89.5659 0.131859C90.4598 -0.234836 91.4854 0.189154 91.8521 1.08298L95.1409 9.0872C95.5076 9.98103 95.0836 11.0066 94.1898 11.3733L86.1855 14.6621C85.2917 15.0288 84.2661 14.6048 83.8994 13.711C83.5327 12.8172 83.9567 11.7916 84.8505 11.4249L89.1076 9.67737C86.025 8.41113 82.8107 7.39125 79.4933 6.6407C75.1674 5.66093 70.6525 5.14532 66.0001 5.14532C57.377 5.14532 49.1834 6.93303 41.7688 10.1473C34.0625 13.4934 27.187 18.3923 21.5199 24.4542C20.861 25.1646 19.7495 25.2047 19.0447 24.5458C18.3343 23.8869 18.2942 22.7754 18.9531 22.0706C24.9347 15.6706 32.2172 10.4854 40.3813 6.93934C48.2423 3.52452 56.906 1.6337 65.9986 1.6337C70.8802 1.6337 75.6587 2.18374 80.2597 3.22647C83.6916 4.0057 87.0264 5.05423 90.2292 6.36054L88.6134 2.42429L88.6148 2.41798ZM104.635 93.7588C105.323 93.0713 105.323 91.9597 104.635 91.2722L100.384 87.0209C101.472 85.239 102.423 83.3654 103.231 81.4116C104.022 79.4979 104.669 77.504 105.162 75.4471H111.19C112.158 75.4471 112.949 74.6621 112.949 73.6881V58.3045C112.949 57.3362 112.164 56.5456 111.19 56.5456H105.134C104.635 54.4944 103.988 52.5062 103.191 50.5982C102.383 48.6559 101.427 46.7937 100.338 45.0176L104.635 40.7203C105.323 40.0328 105.323 38.9212 104.635 38.2337L93.7546 27.3531C93.067 26.6656 91.9554 26.6656 91.2679 27.3531L86.9536 31.6675C85.1831 30.5846 83.3152 29.6335 81.3729 28.8313C79.4706 28.0464 77.4883 27.3989 75.4427 26.9062V20.7984C75.4427 19.8301 74.6577 19.0394 73.6837 19.0394H58.3001C57.3318 19.0394 56.5412 19.8244 56.5412 20.7984V26.9062C54.4957 27.3989 52.5132 28.0464 50.611 28.8313C48.6629 29.6392 46.8007 30.5846 45.0303 31.6675L40.7159 27.3531C40.0284 26.6656 38.9168 26.6656 38.2293 27.3531L27.3487 38.2337C26.6612 38.9212 26.6612 40.0328 27.3487 40.7203L31.6459 45.0176C30.5573 46.7937 29.6005 48.6559 28.7926 50.5982C28.0019 52.5062 27.3488 54.4886 26.8503 56.5399H20.7941C19.8258 56.5399 19.0351 57.3248 19.0351 58.2988V73.6824C19.0351 74.6507 19.8201 75.4414 20.7941 75.4414H26.8217C27.3144 77.4982 27.9619 79.4922 28.7526 81.4059C29.5604 83.3596 30.5115 85.2333 31.6002 87.0152L27.3489 91.2665C26.6613 91.954 26.6613 93.0656 27.3489 93.7531L38.2294 104.634C38.917 105.321 40.0286 105.321 40.7161 104.634L44.9502 100.4C46.7321 101.494 48.6115 102.456 50.5595 103.264C52.4732 104.055 54.4671 104.708 56.5354 105.207V111.188C56.5354 112.157 57.3204 112.947 58.2944 112.947H73.678C74.6463 112.947 75.437 112.162 75.437 111.188V105.207C77.5054 104.708 79.5049 104.055 81.4129 103.264C83.3667 102.451 85.2403 101.494 87.0222 100.4L91.2564 104.634C91.9439 105.321 93.0555 105.321 93.743 104.634L104.624 93.7531L104.635 93.7588ZM81.6476 50.4081C85.6527 54.4132 88.1336 59.9479 88.1336 66.0616C88.1336 72.1753 85.6584 77.7099 81.6476 81.7151C77.6426 85.7201 72.1078 88.201 65.9941 88.201C59.8806 88.201 54.3458 85.7259 50.3406 81.7151C46.3356 77.71 43.8547 72.1753 43.8547 66.0616C43.8547 59.9479 46.3299 54.4133 50.3406 50.4081C54.3457 46.4031 59.8804 43.9222 65.9941 43.9222C72.1077 43.9222 77.6424 46.3974 81.6476 50.4081ZM56.6038 67.9068C55.836 67.3224 55.6813 66.2281 56.2658 65.4545C56.8502 64.6867 57.9445 64.532 58.7181 65.1165L64.4992 69.5111L72.9675 58.9629C73.5749 58.2066 74.675 58.0862 75.4313 58.6936C76.1876 59.3009 76.3079 60.4011 75.7006 61.1573L66.1665 73.0349L66.1608 73.0292C65.5706 73.7626 64.4992 73.9001 63.7429 73.3271L56.6038 67.9012L56.6038 67.9068Z" fill="#9A9A9A"/>
</svg>
